<?xml version="1.0" standalone="no"?>
<!DOCTYPE svg PUBLIC "-//W3C//DTD SVG 1.1//EN" "http://www.w3.org/Graphics/SVG/1.1/DTD/svg11.dtd" >
<svg xmlns="http://www.w3.org/2000/svg">
<metadata>Generated by IcoMoon</metadata>
<defs>
<font id="icomoon" horiz-adv-x="1024">
<font-face units-per-em="1024" ascent="960" descent="-64" />
<missing-glyph horiz-adv-x="1024" />
<glyph unicode="&#x20;" horiz-adv-x="512" d="" />
<glyph unicode="&#xe900;" glyph-name="map-search" horiz-adv-x="1431" d="M844.535 732.291c-132.371 132.406-347.013 132.406-479.429 0-132.403-132.403-132.403-347.062 0-479.429 132.39-132.39 347.029-132.39 479.429-0.003v0.003c132.39 132.39 132.39 347.026 0.010 479.416 0 0-0.010 0-0.010 0.013v0zM291.339 179.095c-173.098 173.163-173.098 453.852 0 627.014 173.15 173.098 453.836 173.098 627.011 0 173.114-173.163 173.114-453.852 0-627.014-173.176-173.098-453.861-173.098-627.011 0v0 0zM1119.613-22.21c-23.652-23.63-62.005-23.63-85.657 0l-85.612 85.67c-23.636 23.649-23.636 61.97 0 85.625 23.623 23.623 61.967 23.623 85.612 0l85.657-85.625c23.707-23.707 23.707-62.025 0-85.67v0z" />
<glyph unicode="&#xe901;" glyph-name="map-location" d="M821.464 822.535c-79.317 80.449-188.544 130.324-309.512 130.324-120.896 0-230.135-49.887-309.536-130.324-148.085-149.879-169.579-389.587-51.609-563.465 47.275-71.309 115.2-127.278 194.577-160.319l138.837-143.822 0.289-0.566 0.518-0.542c14.979-14.63 39.411-14.028 54.114 0.542l139.379 144.388c79.341 33.042 147.013 89.022 195.119 160.319 117.416 173.878 95.958 413.586-52.175 563.465z" />
<glyph unicode="&#xe902;" glyph-name="map-column" d="M679.303 720.027c0-13.45-10.91-24.36-24.36-24.36h-345.022c-13.462 0-24.36 10.91-24.36 24.36v0c0 13.462 10.91 24.36 24.36 24.36h345.010c13.462 0.012 24.372-10.897 24.372-24.36v0zM679.303 518.984c0-13.45-10.91-24.36-24.36-24.36h-345.022c-13.462 0-24.36 10.91-24.36 24.36v0c0 13.462 10.91 24.36 24.36 24.36h345.010c13.462 0 24.372-10.897 24.372-24.36v0zM607.031 619.506c0-9.934-8.911-17.978-19.892-17.978h-281.684c-10.982 0-19.892 8.044-19.892 17.978v0c0 9.934 8.911 17.99 19.892 17.99h281.684c10.982 0 19.892-8.056 19.892-17.99v0zM607.031 418.462c0-9.934-8.911-17.99-19.892-17.99h-281.684c-10.982 0-19.892 8.056-19.892 17.99v0c0 9.922 8.911 17.978 19.892 17.978h281.684c10.982 0.012 19.892-8.044 19.892-17.978v0z" />
<glyph unicode="&#xe903;" glyph-name="map-guid" d="M993.897 515.071c17.821 0 32.283 14.45 32.283 32.271v270.678c0 14.040-9.067 26.455-22.421 30.742l-319.675 102.4c-6.406 2.059-13.306 2.059-19.712 0l-309.789-99.257-309.813 99.257c-9.826 3.143-20.543 1.409-28.875-4.672-8.333-6.069-13.258-15.75-13.258-26.058v-855.613c0-14.040 9.079-26.479 22.433-30.754l319.639-102.412c6.418-2.059 13.294-2.059 19.712 0l309.813 99.245 309.813-99.245c3.251-1.011 6.551-1.517 9.826-1.517 6.767 0 13.414 2.119 19.025 6.189 8.321 6.081 13.246 15.798 13.246 26.070v360.579c0 17.845-14.426 32.283-32.247 32.283-17.845 0-32.319-14.402-32.319-32.283v-316.339l-259.408 83.11v472.89c1.65-1.096 3.263-2.228 4.865-3.372l37.533 52.525c-9.127 6.526-18.76 12.559-28.598 17.918l-13.799-25.359v273.231l259.432-83.11v-247.125c0-17.821 14.45-32.271 32.295-32.271v0zM637.616 86.999l-250.762-80.364v562.261l17.364-49.418c7.55 2.649 15.305 4.877 23.059 6.659l-14.438 62.928c-8.73-2.011-17.448-4.503-25.985-7.333v212.735l250.762 80.34v-787.808zM67.191 876.204l255.097-81.725v-285.839l-20.82 27.816c-7.995-5.973-15.895-12.463-23.565-19.29l42.988-48.166c0.458 0.409 0.927 0.807 1.385 1.228v-463.582l-255.085 81.737v787.82zM172.336 372.103l59.521-24.986c0.024 0.084 3.673 8.658 10.946 21.879l-56.631 31.019c-8.875-16.196-13.354-26.756-13.836-27.912v0zM201.308 425.663l54.535-34.547c4.552 7.249 9.416 14.389 14.389 21.265l-52.236 37.882c-5.792-7.959-11.403-16.232-16.689-24.601v0zM236.264 473.817l49.659-41.278c5.467 6.623 11.15 12.993 16.882 18.953l-46.6 44.686c-6.791-7.080-13.498-14.606-19.941-22.361v0zM782.245 457.2c2.757-8.116 5.118-16.629 7.008-25.335l63.037 13.884c-2.384 10.958-5.37 21.771-8.899 32.102l-61.146-20.651zM830.82 509.002c-4.865 10.223-10.392 20.169-16.437 29.586l-54.331-34.836c4.588-7.165 8.778-14.739 12.475-22.517l58.292 27.767zM770.83 590.45l-43.758-47.455c6.298-5.816 12.294-12.065 17.761-18.58l49.454 41.507c-7.261 8.61-15.136 16.858-23.457 24.528v0zM857.757 413.212l-64.072-7.598c1.011-8.718 1.71-17.773 1.975-26.913l64.506 2.023c-0.325 11.018-1.132 21.951-2.408 32.488v0zM794.648 338.471l64.349-4.985c0.373 4.961 0.722 9.946 0.915 14.835l-64.47 2.962c-0.205-4.202-0.47-8.501-0.795-12.812v0zM236.589 272.713c0 0.843-0.036 1.746-0.157 2.601-0.205 1.734-0.47 3.396-0.795 5.13-0.169 0.831-0.373 1.686-0.626 2.493-0.132 0.831-0.313 1.71-0.554 2.541-0.458 1.662-0.975 3.275-1.529 4.901-0.301 0.819-0.638 1.662-1.011 2.42-0.253 0.795-0.566 1.626-0.903 2.396-0.71 1.553-1.457 3.131-2.276 4.684-0.421 0.759-0.867 1.481-1.349 2.204-0.361 0.759-0.783 1.481-1.252 2.252-0.927 1.457-1.903 2.89-2.926 4.263-0.518 0.722-1.060 1.349-1.638 1.987-0.482 0.71-0.999 1.349-1.577 2.023-1.108 1.288-2.3 2.565-3.528 3.781-0.626 0.614-1.264 1.192-1.927 1.734-0.59 0.65-1.204 1.24-1.866 1.758-1.276 1.156-2.649 2.228-4.034 3.263-0.698 0.494-1.409 0.987-2.155 1.397-0.674 0.542-1.373 1.036-2.107 1.493-1.457 0.927-2.962 1.794-4.479 2.613-0.783 0.409-1.577 0.759-2.36 1.096-0.747 0.397-1.505 0.795-2.288 1.18-1.577 0.674-3.215 1.313-4.829 1.878-0.831 0.265-1.662 0.542-2.505 0.735-0.783 0.301-1.602 0.59-2.456 0.795-1.662 0.446-3.348 0.843-5.045 1.18-0.855 0.181-1.698 0.253-2.565 0.349-0.819 0.193-1.686 0.313-2.529 0.397-1.698 0.241-3.42 0.313-5.142 0.409-0.855 0.036-1.734 0.012-2.565-0.024-0.843 0.060-1.71 0.084-2.577 0.036-1.722-0.036-3.444-0.193-5.13-0.325-0.867-0.12-1.71-0.253-2.541-0.421-0.843-0.072-1.71-0.169-2.553-0.313-1.698-0.289-3.396-0.698-5.057-1.12-0.843-0.241-1.686-0.482-2.468-0.795-0.831-0.181-1.686-0.397-2.493-0.71-1.638-0.542-3.263-1.156-4.841-1.83-0.783-0.349-1.553-0.759-2.3-1.156-0.795-0.277-1.589-0.686-2.36-1.084-1.517-0.771-3.022-1.65-4.491-2.541-0.747-0.47-1.445-0.963-2.119-1.505-0.747-0.421-1.481-0.867-2.179-1.373-1.373-1.024-2.733-2.083-4.034-3.191-0.662-0.566-1.288-1.192-1.89-1.758-0.662-0.518-1.313-1.096-1.927-1.698-1.24-1.228-2.42-2.468-3.552-3.769-0.566-0.686-1.096-1.313-1.577-2.023-0.602-0.638-1.144-1.264-1.686-1.987-1.024-1.361-2.023-2.806-2.974-4.263-0.47-0.759-0.891-1.505-1.252-2.252-0.506-0.722-0.951-1.445-1.361-2.252-0.819-1.505-1.589-3.059-2.3-4.636-0.361-0.759-0.662-1.577-0.927-2.396-0.385-0.759-0.747-1.577-1.036-2.408-0.59-1.614-1.108-3.263-1.565-4.877-0.253-0.843-0.421-1.722-0.578-2.553-0.253-0.807-0.482-1.686-0.65-2.505-0.325-1.698-0.614-3.384-0.819-5.094-0.108-0.831-0.181-1.734-0.181-2.601-0.144-0.819-0.241-1.722-0.277-2.589-0.060-1.204-0.096-2.396-0.096-3.6 0-0.494 0-1.011 0.024-1.553 0.024-0.867 0.084-1.698 0.193-2.541-0.012-0.843 0.024-1.734 0.108-2.601 0.169-1.71 0.397-3.396 0.686-5.081 0.132-0.855 0.325-1.734 0.566-2.541 0.108-0.807 0.277-1.686 0.506-2.529 0.397-1.698 0.891-3.335 1.433-4.997 0.265-0.807 0.59-1.614 0.951-2.372 0.241-0.831 0.518-1.674 0.867-2.481 0.638-1.565 1.361-3.155 2.131-4.696 0.397-0.759 0.831-1.529 1.288-2.252 0.361-0.759 0.759-1.529 1.204-2.264 0.891-1.481 1.842-2.938 2.842-4.311 0.506-0.71 1.024-1.361 1.602-1.999 0.482-0.722 0.987-1.409 1.529-2.107 1.096-1.3 2.24-2.589 3.432-3.793 0.602-0.638 1.24-1.252 1.903-1.758 0.566-0.638 1.156-1.252 1.794-1.83 1.264-1.12 2.613-2.264 3.986-3.311 0.686-0.494 1.385-0.987 2.107-1.433 0.662-0.542 1.349-1.060 2.083-1.553 1.433-0.927 2.914-1.842 4.419-2.685 0.759-0.446 1.553-0.795 2.324-1.144 0.747-0.47 1.493-0.855 2.288-1.252 1.553-0.722 3.179-1.385 4.768-1.999 0.819-0.301 1.65-0.59 2.481-0.771 0.783-0.301 1.602-0.614 2.444-0.843 1.65-0.47 3.335-0.915 5.021-1.252 0.867-0.241 1.71-0.301 2.553-0.409 0.819-0.229 1.674-0.361 2.529-0.518 1.698-0.229 3.408-0.361 5.118-0.482 0.867-0.060 1.734-0.060 2.577-0.036 0.759-0.072 1.517-0.096 2.3-0.096 0.084 0 0.181 0 0.253 0 1.722 0 3.444 0.096 5.142 0.253 0.867 0.072 1.734 0.217 2.553 0.349 0.843 0.012 1.71 0.144 2.565 0.253 1.698 0.253 3.408 0.59 5.069 1.011 0.867 0.217 1.698 0.446 2.493 0.747 0.831 0.181 1.674 0.409 2.517 0.65 1.638 0.542 3.275 1.108 4.877 1.758 0.807 0.301 1.589 0.686 2.324 1.084 0.807 0.301 1.602 0.662 2.372 1.048 1.529 0.747 3.071 1.553 4.552 2.432 0.759 0.433 1.481 0.915 2.167 1.433 0.759 0.397 1.493 0.843 2.192 1.337 1.421 0.987 2.806 2.023 4.142 3.107 0.674 0.542 1.3 1.132 1.903 1.734 0.686 0.518 1.337 1.060 1.999 1.686 1.252 1.18 2.481 2.42 3.612 3.649 0.59 0.662 1.132 1.313 1.638 1.999 0.602 0.626 1.168 1.288 1.734 1.951 1.048 1.337 2.071 2.757 3.046 4.166 0.482 0.735 0.939 1.457 1.313 2.216 0.506 0.71 0.987 1.409 1.421 2.167 0.855 1.505 1.674 3.083 2.42 4.612 0.361 0.795 0.698 1.589 0.975 2.372 0.397 0.771 0.771 1.577 1.084 2.396 0.638 1.626 1.216 3.263 1.686 4.841 0.253 0.843 0.47 1.722 0.638 2.541 0.277 0.795 0.506 1.65 0.71 2.481 0.373 1.686 0.698 3.372 0.963 5.094 0.096 0.867 0.193 1.722 0.229 2.589 0.157 0.819 0.253 1.674 0.325 2.589 0.108 1.698 0.193 3.384 0.193 5.178 0 0.987-0.024 1.975-0.060 2.962-0.108 0.783-0.193 1.638-0.337 2.468v0zM190.724 265.332c-0.012-0.277-0.024-0.59-0.036-0.843-0.048-0.301-0.096-0.602-0.144-0.867-0.084-0.566-0.205-1.132-0.313-1.71-0.060-0.289-0.132-0.578-0.181-0.831-0.084-0.277-0.169-0.566-0.253-0.831-0.169-0.554-0.361-1.12-0.59-1.662-0.096-0.253-0.217-0.518-0.277-0.771-0.132-0.253-0.265-0.53-0.397-0.795-0.253-0.494-0.506-1.011-0.795-1.505-0.144-0.253-0.289-0.518-0.421-0.759-0.169-0.253-0.337-0.47-0.506-0.722-0.337-0.494-0.662-0.963-1.024-1.433-0.181-0.253-0.361-0.446-0.518-0.686-0.205-0.241-0.409-0.421-0.602-0.65-0.397-0.433-0.807-0.843-1.252-1.276-0.217-0.169-0.409-0.373-0.626-0.602-0.229-0.169-0.458-0.337-0.686-0.53-0.458-0.325-0.927-0.735-1.409-1.060-0.241-0.169-0.494-0.325-0.71-0.494-0.253-0.169-0.506-0.277-0.759-0.433-0.506-0.289-1.011-0.578-1.541-0.807-0.253-0.12-0.518-0.253-0.759-0.397-0.265-0.096-0.542-0.217-0.807-0.301-0.53-0.217-1.072-0.397-1.626-0.59-0.265-0.096-0.53-0.193-0.807-0.253-0.277-0.048-0.566-0.144-0.843-0.193-0.554-0.132-1.132-0.253-1.698-0.325-0.289-0.048-0.578-0.12-0.879-0.157-0.265-0.024-0.566-0.060-0.867-0.072-0.59-0.060-1.18-0.072-1.758-0.072-0.289 0-0.602-0.012-0.903-0.036-0.277 0.036-0.59 0.048-0.867 0.060-0.578 0.048-1.18 0.12-1.758 0.193-0.289 0.036-0.59 0.084-0.867 0.108-0.277 0.072-0.566 0.144-0.843 0.217-0.566 0.132-1.132 0.253-1.686 0.397-0.265 0.108-0.566 0.193-0.843 0.253-0.253 0.12-0.53 0.241-0.795 0.301-0.53 0.217-1.084 0.446-1.602 0.686-0.265 0.12-0.53 0.253-0.795 0.337-0.241 0.169-0.494 0.289-0.759 0.433-0.494 0.265-0.999 0.614-1.505 0.915-0.253 0.181-0.494 0.301-0.735 0.47-0.229 0.205-0.47 0.349-0.686 0.542-0.458 0.337-0.903 0.747-1.337 1.108-0.229 0.229-0.446 0.397-0.674 0.614-0.193 0.241-0.385 0.421-0.602 0.626-0.409 0.421-0.795 0.867-1.168 1.325-0.205 0.241-0.373 0.446-0.578 0.686-0.157 0.217-0.325 0.482-0.494 0.71-0.337 0.47-0.662 0.963-0.963 1.457-0.144 0.253-0.301 0.518-0.458 0.759-0.144 0.253-0.241 0.506-0.385 0.771-0.253 0.494-0.506 1.060-0.735 1.602-0.12 0.253-0.217 0.494-0.325 0.771-0.084 0.241-0.181 0.542-0.265 0.819-0.205 0.554-0.337 1.096-0.494 1.638-0.072 0.289-0.144 0.578-0.217 0.843-0.036 0.289-0.084 0.566-0.132 0.831-0.108 0.59-0.193 1.192-0.229 1.758-0.024 0.253-0.060 0.566-0.108 0.843 0 0.277 0 0.59-0.012 0.891v0.506c0 0.397 0.012 0.819 0.024 1.252 0.024 0.289 0.048 0.602 0.048 0.831 0.048 0.277 0.084 0.59 0.12 0.891 0.060 0.566 0.169 1.168 0.289 1.758 0.048 0.253 0.096 0.542 0.144 0.807 0.084 0.253 0.169 0.542 0.253 0.819 0.157 0.542 0.325 1.108 0.53 1.698 0.096 0.253 0.181 0.518 0.265 0.771 0.132 0.253 0.253 0.518 0.373 0.771 0.241 0.494 0.506 1.060 0.783 1.577 0.132 0.253 0.265 0.506 0.397 0.771 0.169 0.229 0.325 0.47 0.482 0.735 0.325 0.47 0.674 0.963 0.999 1.433 0.193 0.229 0.349 0.47 0.506 0.71 0.205 0.217 0.421 0.421 0.59 0.662 0.397 0.446 0.771 0.843 1.204 1.252 0.229 0.229 0.433 0.433 0.638 0.674 0.229 0.193 0.446 0.349 0.662 0.542 0.458 0.385 0.915 0.759 1.385 1.084 0.229 0.181 0.458 0.337 0.698 0.542 0.253 0.169 0.506 0.277 0.759 0.421 0.494 0.313 1.011 0.614 1.505 0.867 0.253 0.144 0.506 0.253 0.759 0.385s0.53 0.229 0.795 0.337c0.518 0.241 1.060 0.446 1.602 0.626 0.265 0.108 0.542 0.229 0.807 0.289 0.277 0.048 0.554 0.144 0.843 0.181 0.542 0.169 1.12 0.289 1.674 0.385 0.289 0.072 0.566 0.144 0.855 0.193 0.289 0 0.59 0.048 0.879 0.084 0.566 0.060 1.168 0.108 1.758 0.132 0.301 0 0.59 0.024 0.903 0.048 0.289-0.024 0.59-0.048 0.879-0.048 0.59-0.048 1.192-0.084 1.77-0.169 0.277-0.024 0.566-0.048 0.855-0.072 0.277-0.072 0.566-0.144 0.843-0.193 0.554-0.12 1.132-0.253 1.71-0.373 0.277-0.096 0.542-0.169 0.831-0.241 0.265-0.096 0.53-0.217 0.807-0.277 0.53-0.217 1.084-0.409 1.602-0.638 0.265-0.12 0.554-0.253 0.807-0.337 0.241-0.157 0.506-0.253 0.759-0.433 0.506-0.253 1.011-0.554 1.505-0.843 0.253-0.157 0.506-0.277 0.759-0.421 0.229-0.229 0.458-0.349 0.686-0.566 0.47-0.325 0.927-0.735 1.361-1.096 0.241-0.205 0.458-0.361 0.686-0.566 0.205-0.229 0.409-0.409 0.614-0.65 0.433-0.373 0.807-0.831 1.192-1.252 0.205-0.253 0.397-0.433 0.578-0.674s0.361-0.47 0.518-0.71c0.361-0.47 0.686-0.963 0.987-1.457 0.181-0.241 0.325-0.47 0.506-0.735 0.132-0.253 0.253-0.518 0.397-0.771 0.253-0.494 0.518-1.011 0.747-1.553 0.12-0.253 0.253-0.518 0.373-0.795 0.084-0.253 0.169-0.518 0.253-0.771 0.205-0.554 0.373-1.12 0.518-1.674 0.072-0.277 0.157-0.578 0.241-0.819 0.036-0.277 0.108-0.578 0.144-0.867 0.12-0.566 0.217-1.156 0.277-1.71 0.012-0.289 0.072-0.602 0.096-0.879 0-0.265 0.012-0.566 0.012-0.843 0.024-0.361 0.024-0.759 0.024-1.060 0.12-0.638 0.084-1.24 0.036-1.842v0zM460.065 593.159c-0.012-0.867 0.012-1.734 0.096-2.601 0.181-1.698 0.409-3.42 0.686-5.081 0.144-0.855 0.337-1.71 0.566-2.529 0.12-0.831 0.289-1.686 0.494-2.517 0.421-1.686 0.903-3.348 1.445-4.997 0.277-0.819 0.59-1.638 0.951-2.408 0.241-0.819 0.53-1.638 0.867-2.444 0.662-1.589 1.385-3.155 2.167-4.684 0.397-0.783 0.819-1.517 1.288-2.252 0.337-0.759 0.759-1.529 1.216-2.276 0.879-1.481 1.83-2.926 2.83-4.335 0.506-0.71 1.024-1.385 1.589-2.023 0.47-0.71 0.987-1.409 1.529-2.071 1.096-1.313 2.252-2.601 3.432-3.829 0.602-0.638 1.252-1.228 1.903-1.77 0.566-0.626 1.156-1.228 1.794-1.818 1.276-1.144 2.613-2.276 3.986-3.323 0.698-0.53 1.397-1.011 2.119-1.457 0.65-0.542 1.349-1.060 2.059-1.529 1.445-0.951 2.938-1.854 4.431-2.685 0.759-0.433 1.517-0.795 2.324-1.144 0.735-0.458 1.493-0.843 2.264-1.228 1.565-0.722 3.155-1.385 4.78-2.011 0.819-0.301 1.65-0.554 2.481-0.771 0.795-0.325 1.614-0.638 2.444-0.867 1.65-0.494 3.348-0.915 5.033-1.264 0.855-0.193 1.722-0.325 2.553-0.409 0.819-0.217 1.698-0.373 2.529-0.494 1.722-0.229 3.432-0.397 5.142-0.506 0.855-0.060 1.758-0.060 2.577-0.012 0.759-0.072 1.541-0.108 2.3-0.108 0.096 0 0.181 0 0.253 0 1.734 0.024 3.456 0.096 5.166 0.241 0.831 0.072 1.734 0.205 2.541 0.361 0.867 0.036 1.722 0.144 2.589 0.265 1.71 0.265 3.36 0.602 5.081 0.999 0.819 0.193 1.686 0.446 2.468 0.735 0.819 0.169 1.698 0.385 2.505 0.65 1.662 0.518 3.299 1.108 4.877 1.746 0.783 0.337 1.577 0.71 2.324 1.096 0.807 0.289 1.626 0.626 2.384 1.011 1.541 0.759 3.071 1.577 4.54 2.444 0.759 0.446 1.457 0.939 2.155 1.445 0.759 0.421 1.493 0.867 2.24 1.361 1.409 0.987 2.794 2.023 4.13 3.095 0.674 0.542 1.3 1.12 1.89 1.734 0.698 0.506 1.337 1.072 1.975 1.662 1.264 1.18 2.493 2.42 3.624 3.661 0.602 0.638 1.156 1.288 1.662 1.999 0.602 0.614 1.192 1.264 1.734 1.951 1.108 1.349 2.107 2.733 3.059 4.154 0.494 0.722 0.939 1.469 1.313 2.228 0.518 0.698 0.987 1.421 1.409 2.167 0.843 1.505 1.674 3.059 2.396 4.588 0.373 0.795 0.71 1.577 0.975 2.384 0.409 0.759 0.759 1.553 1.096 2.384 0.638 1.614 1.204 3.239 1.698 4.889 0.265 0.831 0.446 1.686 0.614 2.517 0.289 0.807 0.542 1.626 0.735 2.493 0.385 1.686 0.735 3.384 0.963 5.094 0.12 0.855 0.217 1.722 0.253 2.553 0.157 0.855 0.253 1.71 0.289 2.565 0.157 1.722 0.205 3.444 0.205 5.19 0 0.999-0.024 2.011-0.048 2.998-0.048 0.867-0.157 1.734-0.265 2.577 0 0.843-0.060 1.71-0.181 2.565-0.193 1.71-0.47 3.444-0.783 5.142-0.157 0.843-0.361 1.674-0.626 2.481-0.12 0.867-0.289 1.71-0.542 2.541-0.446 1.662-0.963 3.311-1.553 4.937-0.277 0.819-0.638 1.638-1.011 2.408-0.253 0.795-0.542 1.602-0.915 2.396-0.686 1.577-1.421 3.167-2.264 4.672-0.397 0.759-0.843 1.505-1.313 2.204-0.361 0.759-0.795 1.505-1.264 2.252-0.891 1.457-1.854 2.89-2.914 4.263-0.506 0.698-1.084 1.373-1.65 1.987-0.482 0.698-1.011 1.385-1.577 2.023-1.132 1.3-2.276 2.577-3.528 3.781-0.638 0.626-1.252 1.192-1.903 1.722-0.59 0.638-1.228 1.228-1.854 1.794-1.288 1.108-2.661 2.204-4.046 3.215-0.722 0.518-1.409 0.999-2.155 1.421-0.698 0.53-1.373 1.036-2.107 1.493-1.469 0.915-2.962 1.794-4.491 2.601-0.759 0.409-1.577 0.759-2.348 1.096-0.759 0.421-1.505 0.807-2.276 1.168-1.577 0.698-3.227 1.325-4.805 1.89-0.807 0.289-1.686 0.53-2.517 0.722-0.783 0.313-1.614 0.578-2.444 0.807-1.686 0.458-3.348 0.843-5.045 1.168-0.843 0.169-1.746 0.265-2.565 0.337-0.819 0.193-1.722 0.337-2.565 0.433-1.698 0.205-3.408 0.325-5.154 0.409-0.831 0.036-1.734 0.012-2.565-0.036-0.819 0.084-1.71 0.084-2.565 0.060-1.71-0.048-3.432-0.181-5.13-0.349-0.867-0.096-1.746-0.229-2.553-0.421-0.831-0.060-1.71-0.169-2.577-0.313-1.698-0.313-3.384-0.686-5.045-1.12-0.843-0.217-1.674-0.482-2.468-0.795-0.855-0.193-1.686-0.421-2.505-0.71-1.626-0.554-3.251-1.192-4.817-1.842-0.819-0.361-1.589-0.722-2.324-1.168-0.783-0.289-1.577-0.662-2.36-1.060-1.505-0.783-3.022-1.65-4.491-2.541-0.759-0.47-1.457-0.951-2.131-1.493-0.747-0.433-1.469-0.891-2.167-1.397-1.373-0.999-2.757-2.071-4.058-3.179-0.662-0.566-1.276-1.168-1.866-1.77-0.674-0.518-1.313-1.084-1.927-1.686-1.216-1.204-2.432-2.481-3.564-3.769-0.578-0.662-1.096-1.325-1.589-2.035-0.566-0.614-1.132-1.264-1.65-1.975-1.024-1.361-2.035-2.794-2.962-4.239-0.482-0.722-0.891-1.481-1.276-2.24-0.506-0.698-0.963-1.445-1.361-2.216-0.831-1.505-1.602-3.071-2.288-4.624-0.373-0.795-0.674-1.602-0.951-2.42-0.373-0.771-0.722-1.589-1.024-2.408-0.59-1.614-1.12-3.263-1.577-4.901-0.241-0.843-0.433-1.698-0.566-2.517-0.253-0.831-0.482-1.662-0.662-2.529-0.337-1.674-0.614-3.396-0.831-5.081-0.12-0.867-0.181-1.734-0.193-2.577-0.132-0.843-0.229-1.71-0.265-2.589-0.060-1.204-0.084-2.408-0.084-3.588 0-0.506 0-1.036 0.012-1.553-0.132-0.963-0.048-1.818 0.072-2.637v0zM505.991 598.505c0.024 0.289 0.024 0.566 0.024 0.867 0.024 0.277 0.084 0.566 0.12 0.855 0.072 0.59 0.157 1.18 0.277 1.746 0.048 0.265 0.096 0.554 0.144 0.831 0.096 0.265 0.181 0.542 0.265 0.819 0.169 0.554 0.337 1.108 0.542 1.686 0.096 0.253 0.193 0.518 0.265 0.783 0.12 0.253 0.253 0.518 0.373 0.795 0.241 0.53 0.494 1.048 0.783 1.565 0.132 0.253 0.253 0.506 0.397 0.759 0.169 0.253 0.325 0.494 0.494 0.735 0.301 0.506 0.638 0.987 0.999 1.445 0.193 0.229 0.349 0.47 0.53 0.698 0.205 0.229 0.397 0.446 0.602 0.662 0.385 0.446 0.783 0.855 1.192 1.252 0.229 0.205 0.433 0.421 0.638 0.65 0.229 0.169 0.446 0.361 0.674 0.554 0.433 0.373 0.891 0.747 1.361 1.072 0.253 0.181 0.47 0.337 0.71 0.518 0.253 0.144 0.506 0.289 0.759 0.446 0.494 0.301 0.999 0.602 1.505 0.879 0.253 0.132 0.53 0.253 0.759 0.409 0.253 0.084 0.518 0.205 0.795 0.313 0.518 0.229 1.084 0.446 1.626 0.638 0.253 0.096 0.518 0.193 0.783 0.277 0.265 0.060 0.578 0.132 0.843 0.217 0.554 0.144 1.12 0.265 1.686 0.373 0.277 0.048 0.566 0.096 0.855 0.169 0.289 0.012 0.566 0.048 0.855 0.072 0.566 0.060 1.168 0.108 1.758 0.132 0.289 0 0.602 0.012 0.879 0.036 0.301-0.024 0.602-0.036 0.867-0.036 0.614-0.024 1.204-0.072 1.77-0.144 0.265-0.024 0.578-0.060 0.855-0.084 0.253-0.060 0.566-0.12 0.843-0.169 0.566-0.108 1.132-0.253 1.686-0.385 0.289-0.072 0.554-0.144 0.855-0.217 0.253-0.108 0.518-0.205 0.771-0.301 0.542-0.193 1.084-0.397 1.626-0.638 0.253-0.108 0.542-0.229 0.783-0.325 0.253-0.157 0.518-0.289 0.759-0.433 0.494-0.265 1.036-0.554 1.529-0.867 0.241-0.157 0.494-0.313 0.759-0.47 0.217-0.181 0.446-0.349 0.71-0.53 0.446-0.361 0.903-0.735 1.349-1.096 0.229-0.193 0.433-0.361 0.698-0.566 0.193-0.205 0.397-0.421 0.614-0.626 0.397-0.409 0.795-0.831 1.18-1.264 0.241-0.229 0.409-0.446 0.602-0.662 0.181-0.253 0.337-0.482 0.53-0.722 0.325-0.482 0.686-0.951 0.987-1.433 0.169-0.253 0.301-0.506 0.47-0.747 0.12-0.265 0.253-0.53 0.397-0.783 0.253-0.506 0.518-1.024 0.759-1.541 0.12-0.277 0.253-0.542 0.373-0.795 0.072-0.265 0.169-0.542 0.265-0.807 0.205-0.542 0.361-1.108 0.506-1.662 0.072-0.253 0.169-0.542 0.253-0.807 0.048-0.289 0.096-0.578 0.144-0.879 0.12-0.566 0.217-1.132 0.253-1.698 0.060-0.289 0.072-0.59 0.12-0.891 0-0.289 0-0.566 0.024-0.855 0.024-0.373 0.024-0.747 0.024-1.060 0-0.602-0.024-1.204-0.048-1.782-0.024-0.289-0.048-0.59-0.060-0.867-0.060-0.277-0.12-0.566-0.157-0.867-0.096-0.578-0.193-1.156-0.301-1.71-0.048-0.289-0.144-0.566-0.193-0.867-0.096-0.253-0.193-0.53-0.253-0.807-0.169-0.554-0.349-1.108-0.59-1.662-0.096-0.253-0.205-0.518-0.277-0.783-0.12-0.253-0.253-0.53-0.385-0.783-0.253-0.518-0.518-1.036-0.783-1.529-0.157-0.253-0.265-0.506-0.421-0.759-0.169-0.229-0.325-0.482-0.518-0.722-0.301-0.482-0.674-0.963-1.036-1.421-0.193-0.229-0.325-0.47-0.518-0.698-0.229-0.217-0.397-0.421-0.602-0.638-0.409-0.421-0.807-0.843-1.252-1.252-0.241-0.193-0.409-0.397-0.638-0.59-0.229-0.181-0.446-0.349-0.698-0.542-0.433-0.373-0.903-0.71-1.373-1.036-0.253-0.181-0.47-0.349-0.735-0.506-0.253-0.132-0.506-0.277-0.759-0.446-0.518-0.277-1.036-0.566-1.553-0.819-0.253-0.144-0.494-0.265-0.759-0.397-0.253-0.096-0.518-0.217-0.795-0.313-0.542-0.217-1.084-0.409-1.626-0.578-0.277-0.084-0.554-0.181-0.819-0.277-0.277-0.060-0.578-0.12-0.819-0.181-0.566-0.132-1.132-0.253-1.722-0.337-0.277-0.048-0.59-0.096-0.867-0.157-0.265-0.012-0.59-0.036-0.843-0.060-0.59-0.036-1.18-0.072-1.758-0.072-0.301 0-0.614-0.012-0.867-0.024-0.313 0.024-0.614 0.048-0.891 0.084-0.59 0.024-1.18 0.096-1.758 0.169-0.289 0.036-0.602 0.072-0.855 0.096-0.265 0.072-0.566 0.132-0.843 0.205-0.542 0.12-1.132 0.253-1.698 0.421-0.253 0.072-0.542 0.157-0.819 0.241-0.253 0.108-0.53 0.217-0.771 0.313-0.554 0.205-1.096 0.433-1.614 0.662-0.265 0.132-0.518 0.253-0.783 0.361-0.253 0.157-0.518 0.289-0.759 0.446-0.494 0.277-1.011 0.578-1.481 0.903-0.253 0.169-0.506 0.313-0.747 0.482-0.229 0.181-0.458 0.361-0.698 0.542-0.458 0.349-0.903 0.735-1.325 1.108-0.241 0.205-0.458 0.397-0.686 0.59-0.193 0.205-0.385 0.409-0.59 0.626-0.397 0.433-0.783 0.855-1.168 1.325-0.157 0.229-0.361 0.458-0.566 0.662-0.157 0.241-0.313 0.482-0.494 0.735-0.349 0.482-0.674 0.963-0.963 1.445-0.157 0.253-0.301 0.506-0.47 0.771-0.108 0.253-0.241 0.506-0.373 0.759-0.253 0.518-0.494 1.060-0.722 1.602-0.108 0.253-0.229 0.518-0.349 0.771-0.084 0.277-0.169 0.554-0.253 0.831-0.193 0.53-0.337 1.096-0.494 1.65-0.048 0.289-0.157 0.566-0.229 0.843-0.036 0.277-0.096 0.566-0.144 0.855-0.096 0.566-0.169 1.168-0.241 1.77-0.024 0.277-0.072 0.566-0.096 0.843 0 0.301 0 0.602 0 0.915v0.494c0.024 0.361 0.024 0.795 0.048 1.204v0zM873.976 240.527c0.421 0.421 0.771 0.855 1.192 1.276 0.409 0.373 0.855 0.759 1.252 1.192l2.42 2.42c0.421 0.421 0.819 0.843 1.204 1.288 0.421 0.349 0.843 0.759 1.276 1.168l2.432 2.432c0.397 0.409 0.795 0.843 1.156 1.252 0.446 0.397 0.867 0.771 1.276 1.216l2.432 2.408c0.421 0.421 0.783 0.843 1.192 1.264 0.446 0.385 0.855 0.759 1.252 1.18l2.42 2.468c9.007 8.983 9.007 23.589 0 32.596-8.983 8.983-23.613 8.983-32.572-0.024l-2.444-2.42c-0.421-0.421-0.795-0.819-1.216-1.252-0.409-0.385-0.807-0.759-1.252-1.192l-2.432-2.456c-0.409-0.397-0.783-0.819-1.192-1.252-0.421-0.373-0.867-0.759-1.252-1.18l-2.42-2.42c-0.433-0.397-0.807-0.819-1.192-1.264-0.433-0.349-0.855-0.759-1.252-1.18l-2.456-2.444c-0.421-0.397-0.795-0.795-1.192-1.252-0.421-0.373-0.855-0.771-1.252-1.204l-2.444-2.444c-0.217-0.229-0.373-0.421-0.59-0.638-0.205 0.217-0.373 0.409-0.59 0.638l-2.42 2.444c-0.421 0.397-0.843 0.795-1.264 1.204-0.361 0.446-0.759 0.843-1.204 1.252l-2.42 2.444c-0.421 0.397-0.831 0.783-1.252 1.18-0.361 0.446-0.759 0.867-1.192 1.264l-2.432 2.42c-0.397 0.421-0.843 0.795-1.252 1.18-0.397 0.446-0.759 0.867-1.204 1.276l-2.444 2.432c-0.397 0.421-0.819 0.795-1.264 1.204-0.349 0.409-0.759 0.819-1.18 1.252l-2.444 2.444c-9.007 8.983-23.589 8.983-32.596 0-9.007-9.007-9.007-23.589 0-32.572l2.444-2.468c0.397-0.421 0.807-0.771 1.252-1.18 0.349-0.421 0.771-0.843 1.192-1.264l2.444-2.42c0.409-0.409 0.807-0.771 1.252-1.204 0.337-0.421 0.759-0.843 1.192-1.252l2.444-2.432c0.385-0.397 0.783-0.795 1.252-1.168 0.361-0.446 0.759-0.867 1.18-1.252l2.468-2.468c0.397-0.397 0.819-0.783 1.252-1.192 0.361-0.421 0.759-0.855 1.192-1.276l2.408-2.42c0.229-0.193 0.421-0.373 0.626-0.566l-1.084-1.084c-0.373-0.397-0.795-0.819-1.168-1.252-0.446-0.361-0.855-0.759-1.276-1.204l-2.42-2.444c-0.409-0.397-0.783-0.807-1.192-1.252-0.433-0.373-0.855-0.759-1.276-1.204l-2.42-2.444c-0.409-0.397-0.771-0.843-1.18-1.264-0.446-0.373-0.831-0.759-1.252-1.18l-2.444-2.432c-0.409-0.409-0.783-0.831-1.18-1.252-0.433-0.373-0.843-0.759-1.264-1.204l-2.432-2.444c-9.031-9.007-9.031-23.589 0-32.596 4.491-4.491 10.38-6.767 16.304-6.767 5.876 0 11.789 2.264 16.304 6.743l2.456 2.468c0.385 0.409 0.783 0.831 1.168 1.252 0.446 0.361 0.867 0.759 1.276 1.204l2.432 2.42c0.421 0.409 0.795 0.807 1.204 1.252 0.409 0.349 0.819 0.759 1.252 1.204l2.432 2.42c0.397 0.421 0.795 0.843 1.204 1.264 0.409 0.361 0.855 0.759 1.252 1.18l2.408 2.444c0.421 0.421 0.807 0.843 1.204 1.264 0.421 0.349 0.843 0.759 1.252 1.18l1.060 1.060 1.036-1.060c0.421-0.397 0.843-0.795 1.264-1.18 0.361-0.421 0.771-0.843 1.18-1.264l2.444-2.444c0.409-0.385 0.843-0.783 1.252-1.18 0.385-0.421 0.759-0.843 1.228-1.264l2.432-2.42c0.397-0.433 0.795-0.819 1.252-1.204 0.373-0.446 0.759-0.843 1.192-1.252l2.444-2.42c0.409-0.409 0.831-0.807 1.252-1.204 0.373-0.421 0.759-0.843 1.18-1.252l2.468-2.444c4.491-4.491 10.368-6.767 16.292-6.767s11.813 2.264 16.304 6.743c9.007 9.031 9.007 23.613 0 32.62l-2.468 2.432c-0.373 0.397-0.807 0.795-1.252 1.204-0.373 0.421-0.759 0.843-1.192 1.252l-2.432 2.432c-0.409 0.397-0.795 0.771-1.252 1.18-0.373 0.421-0.759 0.843-1.204 1.252l-2.42 2.456c-0.421 0.421-0.843 0.795-1.288 1.18-0.361 0.433-0.759 0.843-1.156 1.264l-2.468 2.42c-0.397 0.421-0.807 0.783-1.252 1.204-0.373 0.421-0.759 0.843-1.192 1.264l-1.060 1.072c0.217 0.193 0.397 0.349 0.614 0.566l2.396 2.444z" />
<glyph unicode="&#xe904;" glyph-name="map-map" d="M872.832 406.409c-10.825 10.789-28.418 10.789-39.279 0l-130.204-129.264-510.423 436.32c-11.632 9.934-29.164 8.634-39.171-2.902-10.006-11.548-8.694-28.96 2.926-38.882l128.036-109.468-129.553-128.602c-10.837-10.777-10.837-28.249 0-38.99 5.419-5.383 12.523-8.092 19.627-8.092s14.209 2.709 19.64 8.092l132.491 131.516 133.31-113.948-305.069-302.841c-10.837-10.777-10.837-28.249 0-38.99 5.419-5.383 12.523-8.104 19.627-8.104s14.209 2.721 19.64 8.104l307.995 305.767 332.643-284.382c5.274-4.479 11.704-6.683 18.122-6.683 7.791 0 15.545 3.251 21.060 9.573 9.994 11.548 8.706 28.972-2.926 38.894l-125.76 107.506 127.265 126.386c10.837 10.765 10.837 28.225 0 38.99v0zM933.039 855.24h-95.428c-18.363 26.84-42.566 49.478-70.719 66.023-33.957 19.953-72.838 30.489-112.455 30.489-39.64 0-78.522-10.536-112.479-30.489-28.141-16.545-52.344-39.183-70.743-66.023h-376.221c-45.119 0-81.845-36.449-81.845-81.255v-751.756c0-44.818 36.726-81.279 81.845-81.279h838.045c45.155 0 81.881 36.461 81.881 81.279v751.756c0 44.806-36.738 81.255-81.881 81.255v0zM654.438 896.602c59.015 0 114.14-31.693 143.822-82.724 14.558-25.058 22.277-53.488 22.277-82.219 0-69.178-44.144-131.456-109.842-154.985-4.227-1.505-7.983-4.010-11.030-7.273l-45.227-48.852-45.264 48.852c-3.034 3.263-6.803 5.768-11.030 7.273-65.674 23.529-109.83 85.807-109.83 154.985 0 28.731 7.706 57.16 22.277 82.219 29.682 51.031 84.783 82.724 143.846 82.724v0zM959.362 22.228c0-14.389-11.813-26.106-26.347-26.106h-838.021c-14.498 0-26.31 11.716-26.31 26.106v751.756c0 14.402 11.801 26.106 26.31 26.106h348.887c-7.309-22.048-11.102-45.155-11.102-68.431 0-46.167 14.281-90.335 41.278-127.759 25.010-34.631 59.027-61.014 98.691-76.631l61.23-66.107c5.274-5.671 12.692-8.911 20.458-8.911v0c7.755 0 15.172 3.227 20.422 8.911l61.243 66.107c39.676 15.606 73.681 42 98.679 76.631 27.009 37.425 41.302 81.592 41.302 127.759 0 23.276-3.805 46.383-11.102 68.431h68.034c14.51 0 26.347-11.716 26.347-26.106v-751.756zM654.438 613.798c65.469 0 118.704 52.886 118.704 117.873 0 64.999-53.271 117.897-118.704 117.897-65.481 0-118.728-52.886-118.728-117.897 0-64.987 53.271-117.873 118.728-117.873v0zM654.438 794.407c34.848 0 63.181-28.141 63.181-62.736s-28.345-62.724-63.181-62.724c-34.872 0-63.181 28.129-63.181 62.724s28.345 62.736 63.181 62.736v0z" />
<glyph unicode="&#xe905;" glyph-name="map-activity" d="M1001.675 949.524c-6.43 3.781-29.525 14.293-56.956-9.272-3.432-2.974-6.767-5.948-10.187-8.838-71.478-62.049-118.716-103.074-381.086-22.445-70.563 21.699-142.305 31.356-213.229 28.779-56.823-2.095-113.177-12.017-167.436-29.513-92.731-29.875-147.627-71.61-149.867-73.344-1.987-1.517-3.769-3.263-5.286-5.19-13.595-7.779-18.881-23.469-12.439-36.883l406.144-838.093c7.694-14.076 26.13-20.157 41.892-13.787 15.738 6.358 23.228 22.891 17.014 37.581l-188.291 388.455c1.024 1.854 2.131 3.649 3.179 5.575 42.699 74.464 91.093 158.91 339.784 138.729 48.045-3.925 96.343 4.214 139.728 23.529 38.316 16.786 74.946 42.073 108.541 75.307 52.741 51.935 99.125 124.857 127.374 200.020 10.789 28.622 17.942 55.162 20.687 76.716 2.709 20.374 3.588 49.021-19.567 62.675v0zM933.003 812.204c-24.167-57.365-58.834-111.624-97.788-152.685-61.989-65.409-130.854-95.56-204.583-89.564-127.241 10.259-222.465-4.552-291.028-45.36-43.626-25.949-70.466-58.654-90.443-89.732l-175.202 361.543c37.774 24.215 79.088 43.433 122.75 57.088 109.432 34.655 222.573 34.559 336.196-0.361 134.647-41.374 229.906-55.138 299.975-43.397 52.356 8.826 87.794 30.983 118.656 55.788-3.974-14.606-9.826-32.5-18.532-53.319v0z" />
<glyph unicode="&#xe906;" glyph-name="map-index" d="M1014.921 446.567l-501.103 508.58-501.066-507.111c-9.802-9.886-10.356-26.587-1.192-37.232 9.151-10.596 24.54-11.235 34.342-1.252l467.892 473.48 467.904-474.937c4.72-4.768 10.645-7.104 16.605-7.104 6.478 0 12.944 2.782 17.725 8.321 9.176 10.633 8.67 27.31-1.108 37.256v0zM1014.921 446.567v0zM876.059 446.146c-13.944 0-25.299-12.041-25.299-26.864v-412.37h-202.175v286.826h-269.559v-286.838h-202.175v412.357c0 14.835-11.307 26.876-25.275 26.876s-25.275-12.041-25.275-26.876v-466.158h303.287v286.886h168.495v-286.886h303.299v466.158c-0.036 14.847-11.343 26.888-25.323 26.888v0zM876.059 446.146v0zM691.959 813.709h145.749v-140.499c0-14.546 10.885-26.347 24.3-26.347 13.426 0 24.324 11.789 24.324 26.347v193.192h-194.372c-13.414 0-24.312-11.776-24.312-26.347s10.885-26.347 24.312-26.347v0zM691.959 813.709v0z" />
<glyph unicode="&#xe907;" glyph-name="map-logout" d="M511.952-64c-68.612 0-135.177 12.487-197.888 37.136-60.544 23.77-114.887 57.823-161.571 101.112-46.648 43.337-83.314 93.814-108.914 150.024-26.515 58.208-39.953 120.029-39.953 183.764 0 76.258 20.109 152.023 58.196 219.081 36.786 64.771 90.226 121.642 154.624 164.485 17.845 11.861 42.699 8.056 55.475-8.513 12.788-16.593 8.682-39.664-9.176-51.525-54.391-36.16-99.546-84.181-130.553-138.873-32.536-57.305-49.033-119.427-49.033-184.655 0-106.374 44.589-206.353 125.58-281.564 81.002-75.211 188.677-116.657 303.214-116.657 114.55 0 222.248 41.41 303.25 116.657 81.027 75.198 125.664 175.202 125.664 281.576 0 65.204-16.497 127.314-49.093 184.631-31.019 54.68-76.21 102.689-130.637 138.885-17.821 11.861-21.939 34.932-9.151 51.525 12.8 16.557 37.629 20.374 55.463 8.489 64.409-42.807 117.897-99.667 154.66-164.449 38.099-67.059 58.268-142.847 58.268-219.081 0-63.687-13.45-125.556-39.977-183.752-25.612-56.221-62.278-106.675-108.963-150.036-46.684-43.337-101.063-77.39-161.595-101.112-62.675-24.625-129.288-37.148-197.888-37.148v0zM523.969 448.205c-21.988 0-39.785 16.521-39.785 36.907v437.163c0 20.386 17.797 36.907 39.785 36.907 21.939 0 39.761-16.521 39.761-36.907v-437.163c0-20.386-17.821-36.907-39.761-36.907v0zM523.969 448.205v0z" />
<glyph unicode="&#xe908;" glyph-name="map-coupon" d="M976.846 387.962c22.277 0 40.339 18.062 40.339 40.339v158.2c0 33.716-18.484 63.181-45.842 78.847l-39.46 148.904c-11.211 42.35-54.788 67.661-97.090 56.45l-730.13-193.397h-7.008c-50.080 0-90.816-40.736-90.816-90.816v-158.224c0-22.277 18.062-40.339 40.351-40.339 23.288 0 42.229-18.953 42.229-42.241s-18.941-42.181-42.229-42.181c-22.289 0-40.351-18.062-40.351-40.339v-158.212c0-50.068 40.736-90.804 90.816-90.804h828.701c50.056 0 90.804 40.736 90.804 90.804v158.212c0 22.277-18.062 40.339-40.351 40.339-23.3 0-42.241 18.929-42.241 42.217s18.965 42.241 42.277 42.241zM850.989 809.398c8.537 2.264 17.328-2.842 19.591-11.391l31.982-120.703h-550.256l498.682 132.094zM87.541 104.989v124.628c48.021 16.762 82.568 62.483 82.568 116.127 0 53.668-34.559 99.39-82.568 116.139v124.628c0 5.575 4.528 10.115 10.115 10.115h104.616v-501.741h-104.616c-5.575-0.012-10.115 4.528-10.115 10.103zM936.471 461.86c-48.009-16.75-82.58-62.471-82.58-116.139 0-53.644 34.571-99.39 82.58-116.115v-124.652c0-5.587-4.54-10.127-10.115-10.127h-666.431v501.765h666.431c5.575 0 10.115-4.528 10.115-10.115v-124.616zM692.248 443.713h-274.375c-15.931 0-28.839-12.884-28.839-28.803s12.908-28.815 28.839-28.815h274.375c15.919 0 28.839 12.884 28.839 28.815-0.012 15.931-12.92 28.803-28.839 28.803zM692.248 305.382h-274.375c-15.931 0-28.839-12.884-28.839-28.815 0-15.943 12.908-28.851 28.839-28.851h274.375c15.919 0 28.839 12.896 28.839 28.851-0.012 15.931-12.92 28.815-28.839 28.815z" />
<glyph unicode="&#xe909;" glyph-name="map-voucher" d="M652.222 848.172c3.48-7.189 5.383-15.268 5.383-23.878 0-29.297-22.698-53.066-50.658-53.066-27.984 0-50.682 23.782-50.682 53.066 0 8.622 1.999 16.701 5.383 23.878h-63.217c-1.602-7.743-2.324-15.714-2.324-23.878 0-64.096 49.598-116.055 110.841-116.055 61.218 0 110.841 51.947 110.841 116.055 0 8.176-0.843 16.148-2.324 23.878h-63.241zM3.552 810.265c0 19.603 17.316 35.51 38.665 35.51v0c21.361 0 38.677-15.907 38.677-35.51v-728.348c0-19.615-17.316-35.51-38.677-35.51v0c-21.349 0-38.665 15.895-38.665 35.51v728.348zM28.117 766.314c-13.583 0-24.564 18.315-24.564 40.905v0c0 22.626 10.994 40.941 24.564 40.941h503.944c13.571 0 24.576-18.315 24.576-40.941v0c0-22.59-11.006-40.905-24.576-40.905h-503.944zM676.088 766.314c-8.284 0-14.979 18.315-14.979 40.917v0c0 22.614 6.707 40.929 14.979 40.929h307.056c8.284 0 14.979-18.315 14.979-40.929v0c0-22.602-6.731-40.917-14.979-40.917h-307.056zM947.609 812.517c0 19.688 16.304 35.655 36.425 35.655v0c20.133 0 36.425-15.967 36.425-35.655v-731.478c0-19.688-16.304-35.655-36.425-35.655v0c-20.133 0-36.425 15.967-36.425 35.655v731.478zM523.993 126.639c13.33 0 24.203-18.086 24.203-40.387v0c0-22.325-10.837-40.387-24.203-40.387h-496.262c-13.354 0-24.203 18.086-24.203 40.387v0c0 22.325 10.837 40.387 24.203 40.387h496.262zM989.381 126.639c7.706 0 13.872-18.086 13.872-40.387v0c0-22.325-6.213-40.387-13.872-40.387h-284.972c-7.67 0-13.86 18.086-13.86 40.387v0c0 22.325 6.249 40.387 13.86 40.387h284.972zM579.54 45.854c-3.6 7.454-5.575 15.81-5.575 24.733 0 30.332 23.493 54.933 52.452 54.933 28.972 0 52.428-24.601 52.428-54.933 0-8.935-2.071-17.303-5.575-24.733h65.481c1.662 8.020 2.384 16.268 2.384 24.733 0 66.372-51.369 120.161-114.73 120.161-63.422 0-114.767-53.813-114.767-120.161 0-8.465 0.879-16.738 2.408-24.733h65.493zM604.574 330.151c0 8.369 8.814 15.196 19.724 15.196v0c10.873 0 19.712-6.791 19.712-15.196v-83.351c0-8.345-8.802-15.16-19.712-15.16v0c-10.861 0-19.724 6.779-19.724 15.16v83.351zM604.574 477.839c0 8.369 8.814 15.16 19.724 15.16v0c10.873 0 19.712-6.779 19.712-15.16v-83.338c0-8.369-8.802-15.184-19.712-15.184v0c-10.861 0-19.724 6.779-19.724 15.184v83.338zM604.574 645.358c0 8.357 8.814 15.16 19.724 15.16v0c10.873 0 19.712-6.803 19.712-15.16v-83.338c0-8.381-8.802-15.172-19.712-15.172v0c-10.861 0-19.724 6.779-19.724 15.172v83.338zM474.31 610.619l-85.084-145.629h60.327v-43.831h-74.512v-33.234h74.512v-44.24h-74.512v-60.749h-67.311v60.749h-77.041v44.24h77.041v33.234h-77.041v43.831h62.013l-82.76 145.629h71.971c32.596-67.456 53.199-111.901 61.808-133.346h1.481c1.132 3.107 2.468 6.984 4.022 11.644 2.541 7.478 12.704 29.489 30.477 66.035l26.455 55.667h68.154z" />
<glyph unicode="&#xe90a;" glyph-name="all-return" d="M664.166 891.733h251.733l-501.316-469.333 501.316-441.617h-268.8l-525.858 441.071z" />
<glyph unicode="&#xe90b;" glyph-name="map-c-catering" d="M896.084 643.179c-17.316 45.059-45.059 86.638-83.182 124.761-34.667 34.655-76.234 62.398-121.293 79.726-52.007 20.795-100.534 31.199-152.516 31.199-48.515 0-100.497-10.404-145.556-27.731-45.059-20.795-86.65-48.527-121.305-83.194-34.655-34.655-62.386-76.246-83.182-124.761-17.328-45.059-27.719-93.574-27.719-145.568 0-38.135 6.936-79.738 17.328-117.825 10.392-38.159 31.187-72.802 51.995-104.002 20.795-31.175 48.515-58.931 79.714-79.702 27.731-20.808 62.675-40.652 97.054-51.959 3.504-1.168 3.938-2.204 6.924-3.48l114.369-114.393c6.936-6.888 17.328-6.888 24.251 0 0 0 0.771 0.12 3.504 3.48l114.369 114.393c0 0 2.517 1.927 6.912 3.432 34.872 14.703 65.854 31.211 97.042 52.007 31.223 24.251 58.955 51.959 79.702 79.69 24.312 31.211 41.627 69.31 52.007 103.977 13.872 38.135 17.328 76.246 17.328 114.381-0.012 51.995-10.404 100.51-27.743 145.568zM530.086 617.073c0.735 0 1.433-0.036 2.143-0.036l-39.122-23.288c-107.855-4.985-190.097-30.742-190.073-61.869 0-11.728 11.885-22.662 32.223-32.054l-47.503-28.273c-5.72 19.567-7.213 37.112-7.43 47.732-0.205 1.204-0.301 3.143-0.446 4.564-0.253 2.553-0.963 5.009-0.963 7.55-0.012 47.323 112.455 85.675 251.171 85.675zM247.643 430.106c0 0-15.1 0-7.779 10.705l426.422 246.331c0-0.024 25.335 4.853 30.176-21.434-0.012 0-421.569-221.983-448.819-235.602zM624.491 610.763l-35.016-18.231c-5.647 0.409-11.307 0.783-17.123 1.084 13.029 6.623 25.54 12.981 37.376 18.989 4.973-0.554 9.91-1.168 14.763-1.842zM381.893 484.473l-82.243-42.819c-1.878 3.612-3.54 7.237-5.081 10.837 19.676 9.982 44.047 22.349 71.309 36.208 5.094-1.493 10.428-2.89 16.015-4.227zM779.704 520.080c-18.484-113.9-83.134-158.067-154.214-185.353-71.044-27.262-158.706-13.619-193.746 0-35.040 13.643-44.782 17.52-100.762 66.697-5.419 4.768-10.247 9.79-14.582 14.979l122.943 58.015c28.081-3.408 59.063-5.322 91.731-5.322 125.941 0 228.040 28.117 228.040 62.784 0 20.579-36.076 38.785-91.563 50.237l28.526 13.462c52.139-15.69 85.181-38.593 85.181-64.181l-1.553-11.319zM275.868 405.759c0 0-10.753 3.925-6.815 12.656l487.026 252.628c0 0 31.886-1.927 29.959-25.323l-510.17-239.961z" />
<glyph unicode="&#xe90c;" glyph-name="map-c-recommended" d="M894.579 643.179c-17.316 45.059-45.059 86.638-83.206 124.761-34.643 34.655-76.21 62.398-121.269 79.726-52.007 20.795-100.534 31.199-152.528 31.199-48.515 0-100.497-10.404-145.556-27.731-45.059-20.795-86.65-48.527-121.305-83.194-34.655-34.655-62.386-76.246-83.182-124.761-17.328-45.059-27.719-93.574-27.719-145.568 0-38.135 6.936-79.738 17.328-117.825 10.392-38.159 31.187-72.802 51.995-104.002 20.795-31.175 48.515-58.931 79.714-79.702 27.731-20.808 62.675-40.652 97.054-51.959 3.504-1.168 3.938-2.204 6.924-3.48l114.369-114.393c6.936-6.888 17.328-6.888 24.263 0 0 0 0.759 0.12 3.504 3.48l114.369 114.393c0 0 2.517 1.927 6.912 3.432 34.872 14.703 65.854 31.211 97.042 52.007 31.223 24.251 58.955 51.959 79.702 79.69 24.312 31.211 41.627 69.31 52.007 103.977 13.872 38.135 17.328 76.246 17.328 114.381-0.012 51.995-10.404 100.51-27.743 145.568zM644.503 341.976c-52.657-40.64-97.764-97.776-103.195-120.98-6.322 23.697-46.829 79.232-103.713 119.848-58.678 41.892-146.797 81.027-146.122 185.823 1.204 190.772 184.859 229.124 249.449 64.747 61.64 157.814 248.486 127.627 249.69-63.603 0.686-104.796-88.528-141.378-146.11-185.835z" />
<glyph unicode="&#xe90d;" glyph-name="map-c-exit" d="M896.084 643.179c-17.316 45.059-45.059 86.638-83.182 124.761-34.667 34.655-76.234 62.398-121.293 79.726-52.007 20.795-100.534 31.199-152.516 31.199-48.515 0-100.497-10.404-145.556-27.731-45.059-20.795-86.65-48.527-121.305-83.194-34.655-34.655-62.386-76.246-83.182-124.761-17.328-45.059-27.719-93.574-27.719-145.568 0-38.135 6.936-79.738 17.328-117.825 10.392-38.159 31.187-72.802 51.995-104.002 20.795-31.175 48.515-58.931 79.714-79.702 27.731-20.808 62.675-40.652 97.054-51.959 3.504-1.168 3.938-2.204 6.924-3.48l114.369-114.393c6.936-6.888 17.328-6.888 24.251 0 0 0 0.771 0.12 3.504 3.48l114.369 114.393c0 0 2.517 1.927 6.912 3.432 34.872 14.703 65.854 31.211 97.042 52.007 31.223 24.251 58.955 51.959 79.702 79.69 24.312 31.211 41.627 69.31 52.007 103.977 13.872 38.135 17.328 76.246 17.328 114.381-0.012 51.995-10.404 100.51-27.743 145.568zM725.169 257.77c0-7.574-6.141-13.703-13.667-13.703-5.997 0-11.030 3.95-12.86 9.284l-0.048 13.763-219.238 35.233v363.843l218.491 34.222v7.995h-293.593v-272.906h-0.072l0.060-177.743c0-7.55-6.117-13.667-13.655-13.667s-13.655 6.117-13.655 13.667v464.316c0 7.538 6.117 13.655 13.655 13.655h320.915c7.526 0 13.667-6.117 13.667-13.655v-464.304zM529.52 497.695c-6.189 0-11.331-7.357-12.957-17.34l-0.229-11.957c1.397-10.645 6.755-18.592 13.185-18.592 7.502 0 13.571 10.717 13.559 23.95 0 13.221-6.057 23.938-13.559 23.938z" />
<glyph unicode="&#xe90e;" glyph-name="map-c-red-envelopes" d="M894.579 643.179c-17.316 45.059-45.059 86.638-83.206 124.761-34.643 34.655-76.21 62.398-121.269 79.726-52.007 20.795-100.534 31.199-152.528 31.199-48.515 0-100.497-10.404-145.556-27.731-45.059-20.795-86.65-48.527-121.305-83.194-34.655-34.655-62.386-76.246-83.182-124.761-17.328-45.059-27.719-93.574-27.719-145.568 0-38.135 6.936-79.738 17.328-117.825 10.392-38.159 31.187-72.802 51.995-104.002 20.795-31.175 48.515-58.931 79.714-79.702 27.731-20.808 62.675-40.652 97.054-51.959 3.504-1.168 3.938-2.204 6.924-3.48l114.369-114.393c6.936-6.888 17.328-6.888 24.263 0 0 0 0.759 0.12 3.504 3.48l114.369 114.393c0 0 2.517 1.927 6.912 3.432 34.872 14.703 65.854 31.211 97.042 52.007 31.223 24.251 58.955 51.959 79.702 79.69 24.312 31.211 41.627 69.31 52.007 103.977 13.872 38.135 17.328 76.246 17.328 114.381-0.012 51.995-10.404 100.51-27.743 145.568zM395.921 684.192h287.428c16.316 0 27.117-5.407 35.305-16.256-17.689-15.064-48.876-38.821-78.642-56.944-46.263-28.237-73.26-32.56-97.62-32.56-48.84 0-78.654 10.849-127.434 48.816-24.432 16.292-40.7 29.839-54.271 40.688 8.116 10.849 21.687 16.256 35.233 16.256zM732.249 350.609c0-27.129-21.687-46.094-46.070-46.094h-290.246c-27.117 0-46.106 18.989-46.106 43.397v292.919c8.128-5.431 35.245-27.117 65.084-48.78 48.864-32.56 84.109-38.003 124.797-38.003 35.233 0 73.212 8.128 105.76 27.105 37.954 21.699 70.49 46.131 86.782 59.713v-290.258zM607.56 518.803l-10.861 5.443c-2.709 0-5.431 0-8.164-2.721l-35.281-65.084h-21.711l-37.918 65.084c-2.721 2.721-5.443 5.407-8.164 2.721l-10.849-5.443c-2.721-2.721-5.443-5.419-2.721-8.14l32.548-54.271h-29.839c-2.709 0-5.443-2.721-5.443-5.443v-13.571c0-2.697 2.721-5.407 5.443-5.407h54.234v-24.372h-54.234c-2.709 0-5.443-2.733-5.443-5.455v-10.837c0-2.709 2.721-5.431 5.443-5.431h54.21v-27.117c0-2.757 2.709-5.431 5.431-5.431h10.813c2.757 0 5.455 2.685 5.455 5.431v29.851h54.259c2.733 0 5.455 2.733 5.455 5.455v10.837c0 2.709-2.733 5.395-5.455 5.395h-54.259v24.396h54.259c2.733 0 5.455 2.697 5.455 5.407v10.849c0 2.733-2.733 5.443-5.455 5.443h-27.069l32.548 54.271c0.012 2.733 0.012 5.419-2.685 8.14z" />
<glyph unicode="&#xe90f;" glyph-name="map-c-road-sign" d="M894.579 643.179c-17.316 45.059-45.059 86.638-83.206 124.761-34.643 34.655-76.21 62.398-121.269 79.726-52.007 20.795-100.534 31.199-152.528 31.199-48.515 0-100.497-10.404-145.556-27.731-45.059-20.795-86.65-48.527-121.305-83.194-34.655-34.655-62.386-76.246-83.182-124.761-17.328-45.059-27.719-93.574-27.719-145.568 0-38.135 6.936-79.738 17.328-117.825 10.392-38.159 31.187-72.802 51.995-104.002 20.795-31.175 48.515-58.931 79.714-79.702 27.731-20.808 62.675-40.652 97.054-51.959 3.504-1.168 3.938-2.204 6.924-3.48l114.369-114.393c6.936-6.888 17.328-6.888 24.263 0 0 0 0.759 0.12 3.504 3.48l114.369 114.393c0 0 2.517 1.927 6.912 3.432 34.872 14.703 65.854 31.211 97.042 52.007 31.223 24.251 58.955 51.959 79.702 79.69 24.312 31.211 41.627 69.31 52.007 103.977 13.872 38.135 17.328 76.246 17.328 114.381-0.012 51.995-10.404 100.51-27.743 145.568zM560.334 216.938h-37.413v168.266h37.413v-168.266zM747.277 403.868h-336.569l-56.065 46.829 56.065 46.733h112.226v56.065h37.401v-56.065h186.943v-93.562zM709.864 572.159h-336.581v93.574h149.638v74.705h37.401v-74.705h149.53l56.053-46.841-56.041-46.733z" />
<glyph unicode="&#xe910;" glyph-name="map-exit" d="M802.86 848.942h-557.661c-13.101 0-23.734-10.633-23.734-23.734v-497.984h47.467v474.25h510.206v-13.908l-379.689-59.46v-632.269l380.99-61.23 0.060-23.83c3.179-9.356 11.933-16.135 22.361-16.135 13.101 0 23.734 10.621 23.734 23.734v806.833c0.012 13.113-10.621 23.734-23.734 23.734v0zM486.641 352.078c-11.186 0-20.506 13.811-22.915 32.319l0.385 20.771c2.83 17.352 11.789 30.152 22.541 30.152 13.005 0 23.541-18.628 23.541-41.615 0.012-22.999-10.536-41.627-23.553-41.627v0zM268.932 18.363c0-13.089-10.633-23.722-23.734-23.722-13.089 0-23.734 10.633-23.734 23.722v308.862h47.347l0.12-308.862z" />
<glyph unicode="&#xe911;" glyph-name="map-details" d="M157.010 785.435c0 1.44 0.287 4.144 0.867 8.11 0.58 3.97 1.017 7.397 1.307 10.278s0.44 5.765 0.44 8.653c4.055 24.511 12.749 44.336 26.085 59.477 13.336 15.145 29.863 23.794 49.568 25.952 3.482 0 24.931 0.73 64.355 2.171h14.787c10.431-0.724 16.524-7.571 18.261-20.555 1.154-7.922 0.58-16.227-1.737-24.87-1.744-5.048-4.055-8.834-6.956-11.36-2.898-2.529-6.376-3.792-10.438-3.792h-58.266c-16.814 0-29.57-6.485-38.263-19.463-6.953-9.376-10.725-21.996-11.305-37.857-0.577-1.437-0.877-4.321-0.877-8.643v-678.124c0-31 11.889-51.91 35.659-62.73 2.908-1.44 5.799-2.693 8.701-3.779 2.901-1.079 5.799-1.802 8.701-2.161s6.083-0.539 9.561-0.539h519.195c20.285 0 34.782 10.090 43.476 30.283 1.171 2.157 2.041 4.676 2.618 7.567 0.58 2.881 1.154 5.584 1.741 8.11 0.57 2.526 1.017 5.226 1.3 8.113 0.287 2.884 0.437 5.772 0.437 8.646v686.763c0 18.033-3.768 32.454-11.308 43.271-9.271 13.698-22.033 20.541-38.263 20.541h-46.964c-2.898 0-5.649 0.543-8.26 1.632-2.615 1.075-5.072 2.529-7.4 4.325-2.314 1.802-4.338 3.973-6.083 6.489-1.737 2.522-3.482 5.584-5.216 9.192-1.161 2.891-1.888 5.591-2.178 8.107-0.29 2.522-0.29 5.226 0 8.117 0.29 2.877 1.017 5.403 2.178 7.564 1.161 2.171 2.755 4.144 4.782 5.956 2.028 1.799 4.202 3.424 6.516 4.864 5.226 2.157 10.445 3.608 15.66 4.332 23.19 0 42.035-0.365 56.528-1.079 22.030-0.724 40.731-9.38 56.098-25.962 15.36-16.585 25.071-38.209 29.129-64.891 0-0.72 0.877-8.294 2.611-22.712v-699.744c-0.573-2.888-0.867-4.68-0.867-5.407-3.485-25.242-5.502-38.577-6.093-40.018-3.475-15.148-8.987-27.945-16.521-38.397-7.54-10.452-17.111-18.565-28.699-24.334-14.49-7.212-31.594-10.817-51.306-10.817h-520.076c-2.891 0-6.079 0.358-9.561 1.075h-8.69c-3.482 0.724-6.67 1.447-9.574 2.171-40.001 10.090-64.348 40.021-73.045 89.764 0 0.72-0.867 9.738-2.615 27.040v698.668zM521.4 431.783h-90.443c-12.172 0-26.528-0.184-43.052-0.546-16.517-0.355-31.741-0.546-45.653-0.546-11.018 0-18.985 5.233-23.921 15.695-4.925 10.455-5.065 20.541-0.43 30.28 4.639 9.735 11.882 14.961 21.746 15.681h359.175c11.592 0 19.992-5.41 25.214-16.224 4.055-9.373 4.205-18.924 0.437-28.658-3.768-9.742-10.291-14.961-19.565-15.681h-183.508zM521.4 658.9h179.152c13.336 0 21.746-7.209 25.225-21.637 2.314-8.646 1.447-17.118-2.615-25.412-4.055-8.291-9.854-12.797-17.401-13.51h-365.247c-6.383 0-11.889 2.161-16.531 6.485-4.635 4.325-7.53 10.090-8.694 17.306-1.157 8.649 0.433 16.759 4.785 24.327 4.349 7.574 9.994 11.721 16.957 12.442h184.368zM520.54 311.729h179.142c14.496 0 23.484-7.939 26.959-23.794 1.737-8.656 0.444-16.77-3.912-24.344-4.352-7.561-10.295-11.715-17.831-12.435h-364.384c-4.062 0-7.97 1.089-11.738 3.246-3.768 2.161-6.813 5.229-9.137 9.185-2.318 3.973-3.768 8.479-4.349 13.534-1.157 7.926 0.433 15.503 4.785 22.705 4.349 7.206 9.708 11.179 16.087 11.895h184.378zM521.4 929.28h80.879c9.858 0 18.412-4.144 25.655-12.442 7.253-8.284 11.742-18.203 13.486-29.737 0.58-5.048 0.72-9.919 0.433-14.602-0.294-4.687-1.017-9.202-2.178-13.52-1.157-4.325-2.755-8.294-4.782-11.892-2.031-3.608-4.495-7.216-7.386-10.817-6.383-7.939-13.916-11.892-22.617-11.892h-166.106c-8.117 0-15.363 2.874-21.746 8.643-6.373 5.769-11.011 13.701-13.909 23.794-2.898 11.534-3.482 22.535-1.737 32.993 1.737 10.445 6.086 20.006 13.042 28.652 6.373 7.212 14.206 10.82 23.48 10.82h83.487z" />
<glyph unicode="&#xe912;" glyph-name="map-go" d="M186.542 287.956c14.561 0 26.371-14.227 26.371-31.778v-254.208c0-17.551-11.807-31.775-26.371-31.775s-26.375 14.223-26.375 31.775v254.208c0.003 17.551 11.81 31.778 26.375 31.778v0zM186.887 310.337h427.063v-31.635c0-17.469-11.947-31.628-26.685-31.628h-427.066v31.628c0 17.473 11.947 31.635 26.689 31.635v0zM564.855 533.289h-148.999l186.395 301.182 186.726-301.906h-106.172c-8.864 0-15.797-6.735-15.797-16.981v-17.422c0-10.247 6.919-18.558 15.469-18.558h196.7l-276.927 446.194-276.924-446.198h239.527v53.688zM561.203 533.357h26.371c14.572 0 26.378-12.513 26.378-27.945v-195.611h-52.746v223.556z" />
<glyph unicode="&#xe913;" glyph-name="map-panorama" d="M706.062 21.248h-341.337l77.769 113.548c-15.353 3.11-30.495 7.345-45.411 12.353l-86.323-125.901-0.106-1.222v-47.193l449.263 1.219v47.196l-92.355 134.81c-14.261-5.902-28.737-10.912-43.544-15.145l82.043-119.665zM878.814 675.232c-19.633 46.974-47.602 89.272-83.357 125.454-35.758 36.291-77.326 64.672-123.621 84.599-47.927 20.593-98.929 31.061-151.357 31.061s-103.438-10.465-151.364-31.061c-46.288-19.924-87.965-48.309-123.614-84.599-35.645-36.287-63.724-78.479-83.36-125.454-20.289-48.64-30.601-100.41-30.601-153.617 0-53.323 10.312-104.974 30.601-153.617 19.637-46.978 47.602-89.272 83.36-125.45 35.755-36.294 77.326-64.672 123.614-84.603 9.213-4.014 18.538-7.571 27.969-10.8 14.916-5.007 30.058-9.243 45.411-12.353 25.446-5.233 51.548-7.902 77.988-7.902 35.318 0 69.977 4.782 103.54 14.138 14.701 4.116 29.283 9.131 43.544 15.142 1.427 0.553 2.85 1.219 4.386 1.778 46.295 19.93 87.965 48.309 123.617 84.603 35.755 36.284 63.724 78.473 83.36 125.45 20.292 48.643 30.601 100.407 30.601 153.617-0.113 53.32-10.421 104.974-30.717 153.614v0zM764.522 273.937c-65.266-66.116-151.91-102.519-244.043-102.519-92.136 0-178.784 36.403-244.050 102.629-65.266 66.236-101.018 153.952-101.018 247.569s35.867 181.446 101.018 247.678 151.91 102.519 244.050 102.519c92.133 0 178.777-36.4 244.043-102.519 65.266-66.123 101.021-154.061 101.021-247.678s-35.867-181.555-101.021-247.678v0zM520.588 328.817c-104.748 0-189.972 86.497-189.972 192.799 0 106.305 85.224 192.795 189.972 192.795s189.972-86.49 189.972-192.795c-0.109-106.301-85.228-192.799-189.972-192.799v0zM520.588 669.887c-80.616 0-146.101-66.454-146.101-148.272 0-81.705 65.591-148.268 146.101-148.268s146.104 66.454 146.104 148.268c-0.116 81.705-65.594 148.272-146.104 148.272v0z" />
<glyph unicode="&#xe914;" glyph-name="music-one" d="M975.292 512.326v278.098c0 66.123-53.803 119.937-120.009 119.937l-3.266-0.302-485.675-87.799c-61.976-1.479-113.927-54.697-113.927-119.707v-433.58c-17.592 7.198-36.070 12.174-55.589 12.174-82.312 0-149.253-66.95-149.253-149.253 0-82.31 66.941-149.251 149.253-149.251 82.308 0 149.249 66.941 149.249 149.251v561.009c0 9.569 5.72 18.405 16.406 26.499 7.198 5.417 14.547 9.047 18.851 10.613l479.521 86.977c9.719-0.965 20.778-12.616 20.778-26.641v-418.963c-17.591 7.198-36.070 12.251-55.591 12.251-82.299 0-149.251-66.948-149.251-149.331 0-82.31 66.95-149.251 149.251-149.251 82.312 0 149.253 66.941 149.253 149.251v278.018z" />
<glyph unicode="&#xe915;" glyph-name="music-two" d="M801.744 869.596c-187.658-60.592-159.371 12.829-264.945 30.915-149.789 25.581-106.82-150.711-106.82-150.711l103.648-383.28c-32.309 20.016-70.72 31.688-111.838 31.688-115.625 0-209.3-91.663-209.3-204.813 0-113.156 93.675-204.817 209.3-204.817s209.295 91.661 209.295 204.817c0 2.931-0.074 5.868-0.228 8.809 0.311 0.769 0.618 1.696 0.775 2.78 6.567 37.251-94.915 510.037-94.915 510.037s107.205-57.352 185.883-3.867c90.505 61.447 85.328 160.376 79.146 158.443v0z" />
<glyph unicode="&#xe916;" glyph-name="off-music" d="M374.995 256.829c0.096 0.208 0.132 0.016 0.233 0.345-0.182 0.645-0.293 0.562-0.421 0.773l0.188-1.118zM511.137 911.968c-256.012 0-463.563-207.553-463.563-463.572 0-256.010 207.553-463.567 463.563-463.567 256.019 0 463.576 207.557 463.576 463.567 0 256.019-207.557 463.572-463.576 463.572zM511.14 31.185c-230.42 0-417.209 186.782-417.209 417.211 0 230.423 186.791 417.215 417.209 417.215 230.425 0 417.215-186.791 417.215-417.215 0-230.429-186.789-417.211-417.215-417.211zM369.885 685.365h57.162v-476.339h-57.162v476.339zM598.529 685.365h57.161v-476.339h-57.161v476.339z" />
<glyph unicode="&#xe917;" glyph-name="map-red-envelope" d="M515.095 641.915c56.269 0 118.463 9.97 225.234 75.102 68.648 41.808 140.583 96.608 181.44 131.372-18.833 25.034-43.795 37.497-81.4 37.497h-663.132c-31.223 0-62.543-12.463-81.303-37.497 31.32-25.034 68.829-56.269 125.182-93.875 112.527-87.553 181.355-112.599 293.979-112.599v0zM752.888 648.188c-75.102-43.783-162.691-62.531-243.995-62.531-93.851 0-175.154 12.559-287.862 87.661-68.817 49.984-131.372 99.98-150.12 112.527v-675.691c0-56.269 43.795-100.052 106.338-100.052h669.501c56.269 0 106.338 43.783 106.338 106.338v669.501c-37.605-31.32-112.623-87.673-200.2-137.754v0zM659.025 360.423c6.274 0 12.559-6.274 12.559-12.559v-25.034c0-6.274-6.274-12.475-12.559-12.475h-125.182v-56.354h125.182c6.274 0 12.559-6.201 12.559-12.475v-25.034c0-6.274-6.274-12.559-12.559-12.559h-125.182v-68.829c0-6.274-6.201-12.559-12.559-12.559h-24.95c-6.274 0-12.559 6.189-12.559 12.559v62.543h-125.086c-6.274 0-12.559 6.274-12.559 12.559v25.034c0 6.274 6.286 12.559 12.559 12.559h125.182v56.269h-125.182c-6.274 0-12.559 6.274-12.559 12.475v31.32c0 6.274 6.286 12.559 12.559 12.559h68.817l-75.090 125.182c-6.274 6.274 0 12.475 6.274 18.76l25.034 12.559c6.274 6.201 12.559 0 18.821-6.274l87.517-150.12h50.068l81.303 150.12c6.274 6.274 12.547 6.274 18.833 6.274l25.034-12.559c6.274-6.274 6.274-12.475 6.274-18.76l-75.102-125.182h62.555z" />
<glyph unicode="&#xe918;" glyph-name="map-shopping" d="M925.586 567.643c-2.565 32.861-34.161 59.641-70.538 59.641h-69.31c-20.928 169.591-129.192 298.795-259.624 298.795-130.444 0-238.709-129.192-259.637-298.795h-69.238c-36.004 0-68.046-26.708-70.611-59.641l-50.815-538.009c-2.553-32.945 29.429-59.713 71.417-59.713h757.825c41.459 0 73.97 26.708 71.417 59.641l-50.887 538.082zM526.113 866.318c95.5 0 175.19-102.665 193.469-239.046h-386.962c18.291 136.381 97.993 239.046 193.493 239.046v0zM328.67 448c-36.329 0-65.806 26.78-65.806 59.761 0 32.993 29.477 59.761 65.806 59.761s65.818-26.768 65.818-59.761c0-32.981-29.489-59.761-65.818-59.761v0zM723.543 448c-36.329 0-65.806 26.78-65.806 59.761 0 32.993 29.477 59.761 65.806 59.761 36.341 0 65.83-26.768 65.83-59.761 0-32.981-29.501-59.761-65.83-59.761v0z" />
<glyph unicode="&#xe919;" glyph-name="chart" d="M375.101 263.997c11.3 0 22.006-2.089 32.113-6.252s18.883-9.958 26.317-17.398c7.434-7.429 13.379-16.2 17.838-26.312s6.692-20.818 6.692-32.118c0-11.29-2.232-22.001-6.692-32.108s-10.409-18.883-17.838-26.312c-7.434-7.439-16.21-13.389-26.317-17.848s-20.813-6.692-32.113-6.692c-11.894 0-22.897 2.232-33.004 6.692s-18.883 10.409-26.317 17.848c-7.434 7.429-13.379 16.2-17.838 26.312s-6.692 20.818-6.692 32.108c0 11.3 2.232 22.011 6.692 32.118s10.404 18.883 17.838 26.312c7.434 7.439 16.21 13.24 26.317 17.398s21.11 6.252 33.004 6.252zM746.199 262.211c11.3 0 22.149-2.079 32.558-6.252 10.409-4.152 19.328-9.948 26.772-17.382 7.429-7.439 13.379-16.22 17.838-26.322 4.46-10.122 6.692-20.808 6.692-32.118 0-11.3-2.232-22.001-6.692-32.108s-10.409-18.883-17.838-26.322c-7.439-7.429-16.358-13.379-26.772-17.838s-21.258-6.692-32.558-6.692-22.001 2.232-32.108 6.692-18.883 10.409-26.322 17.838c-7.429 7.439-13.379 16.21-17.838 26.322s-6.692 20.808-6.692 32.108c0 11.31 2.232 22.001 6.692 32.118 4.46 10.102 10.409 18.883 17.838 26.322 7.439 7.429 16.21 13.23 26.322 17.382 10.107 4.173 20.808 6.252 32.108 6.252zM896.072 768.911c16.65 0 29.588-2.232 38.81-6.692 9.211-4.46 15.759-9.958 19.62-16.502 3.871-6.543 5.652-13.532 5.35-20.961-0.292-7.434-1.331-13.829-3.118-19.18-1.782-5.35-5.652-16.353-11.602-33.004-5.939-16.65-12.339-34.939-19.169-54.866-6.84-19.922-13.681-39.695-20.521-59.325-6.84-19.62-12.349-35.087-16.502-46.387-7.741-23.788-17.398-40.294-29-49.51-11.602-9.226-26.010-13.824-43.259-13.824h-468.342l12.488-80.292h450.493c28.549 0 42.829-12.201 42.829-36.582 0-11.889-2.831-22.298-8.479-31.222s-16.799-13.082-33.449-12.488h-467.451c-11.894 0-21.857 2.678-29.885 8.028-8.028 5.361-14.72 12.339-20.070 20.972-5.356 8.622-9.667 17.992-12.933 28.088-3.272 10.122-5.801 19.63-7.583 28.549-0.594 3.569-2.232 12.201-4.905 25.871-2.673 13.681-5.949 30.781-9.815 51.302-3.866 20.516-8.177 43.412-12.933 68.69-4.756 25.272-9.513 50.698-14.275 76.268-11.3 60.068-24.090 126.971-38.359 200.714h-66.908c-8.924 0-16.353 2.232-22.303 6.692-5.944 4.46-10.854 9.815-14.72 16.056s-6.543 12.933-8.028 20.070c-1.49 7.137-2.232 13.676-2.232 19.625 0 11.894 4.014 21.709 12.042 29.44s18.883 11.3 32.558 10.706h90.107c11.894 0 21.412-1.787 28.544-5.356 7.137-3.569 12.79-8.028 16.952-13.379s7.137-10.854 8.919-16.502c1.782-5.652 3.272-10.557 4.46-14.72 1.188-4.756 2.376-11.448 3.569-20.070 1.188-8.622 2.376-17.393 3.569-26.317 1.787-10.706 3.569-22.001 5.35-33.9h610.181zM863.068 689.516l-558.438 1.787 31.222-161.459 466.55-0.896 60.667 160.568z" />
<glyph unicode="&#xe91a;" glyph-name="time" d="M511.401 97.178c-52.454 0-103.352 10.276-151.281 30.551-46.285 19.574-87.839 47.59-123.52 83.272-35.681 35.686-63.698 77.24-83.272 123.52-20.275 47.933-30.556 98.831-30.556 151.286 0 52.449 10.281 103.352 30.556 151.281 19.574 46.285 47.59 87.839 83.272 123.52s77.235 63.698 123.52 83.272c47.933 20.275 98.831 30.551 151.281 30.551s103.347-10.276 151.276-30.551c46.285-19.574 87.839-47.59 123.52-83.272 35.686-35.681 63.698-77.24 83.282-123.52 20.27-47.928 30.551-98.831 30.551-151.281 0-52.454-10.281-103.352-30.551-151.286-19.579-46.28-47.596-87.834-83.282-123.52-35.681-35.681-77.235-63.693-123.52-83.272-47.928-20.275-98.826-30.551-151.276-30.551zM511.401 813.036c-180.434 0-327.229-146.796-327.229-327.229s146.796-327.229 327.229-327.229c180.439 0 327.229 146.796 327.229 327.229s-146.79 327.229-327.229 327.229zM504.494 394.506c-18.949 0-34.309 13.747-34.309 30.694v285.507c0 16.957 15.36 30.7 34.309 30.7s34.304-13.747 34.304-30.7v-285.507c0-16.952-15.355-30.694-34.304-30.694zM684.908 286.029c-8.084 0-16.179 3.092-22.344 9.262l-173.855 173.85c-12.344 12.349-12.344 32.358 0 44.703 12.344 12.349 32.358 12.349 44.703 0l173.844-173.85c12.344-12.344 12.344-32.358 0-44.703-6.159-6.17-14.254-9.262-22.349-9.262z" />
<glyph unicode="&#xe91b;" glyph-name="on-music" d="M513.831 910.028c-255.535 0-462.648-207.142-462.648-462.675 0-255.481 207.113-462.619 462.648-462.619 255.475 0 462.595 207.138 462.595 462.619 0.002 255.533-207.111 462.675-462.595 462.675v0zM513.831 34.237c-223.271 0-415.482 185.406-413.14 413.118 2.391 235.101 189.869 413.167 413.14 413.167 223.218 0 413.087-180.134 413.087-413.167 0-227.71-189.869-413.118-413.087-413.118v0zM767.925 559.653c-8.269 11.713-15.994 20.32-23.233 25.894-7.203 5.554-14.576 10.521-22.14 14.585-7.591 4.198-15.727 8.699-24.425 13.637-8.735 4.884-18.69 12.531-29.95 22.946-13.279 11.372-23.444 22.689-30.684 33.893-7.373 11.211-13.413 21.196-18.28 29.979-4.783 8.755-9.793 15.712-14.767 20.806-5.037 5.173-11.888 7.535-20.461 7.154-10.279-0.175-18.768-3.71-25.512-10.483-6.88-6.844-10.774-16.059-11.944-27.665-5.222-50.369-9.912-96.151-14.020-137.822l-0.444 0.403-18.45-192.316c-5.848 2.96-15.015 6.511-27.474 10.575-12.508 4.109-26.873 6.585-43.108 7.606-16.268 0.963-33.434-0.748-51.392-5.063-17.977-4.282-35.248-13.283-51.681-27.060-16.51-13.727-25.731-29.273-27.581-46.71-1.904-17.395 1.687-33.922 10.774-49.578 9.082-15.631 22.796-29.21 41.069-40.685 18.338-11.482 39.469-17.807 63.493-18.951 23.585-1.033 43.659 1.309 60.168 7.21 16.539 5.892 30.006 13.546 40.562 23.043 10.526 9.501 18.084 19.953 22.711 31.39 4.649 11.462 7.21 22.066 7.725 31.69l8.164 83.029 14.357 141.768c0.578 5.72 1.17 11.711 1.714 17.242l8.079 82.288c0.6 6.407 3.486 10.582 8.594 12.524 5.115 1.947 11.648-1.736 19.698-11.070 8.402-10.456 19.091-21.951 31.961-34.325 12.898-12.39 28.258-21.259 46.136-26.621 17.159-4.909 29.428-11.52 37.020-19.718 7.613-8.213 11.585-20.278 12.129-36.053 0.303-9.744 1.333-16.532 3.183-20.332 1.855-3.813 4.219-6.071 6.992-6.748 2.828-0.685 6.477 1.703 11.182 7.143 4.593 5.453 8.298 12.636 11.021 21.624 2.773 9.045 3.641 19.268 2.773 30.642-0.981 11.426-5.688 22.814-13.956 34.13v0z" />
<glyph unicode="&#xe91c;" glyph-name="info" d="M906.624 719.677c0 0.092 0 0.184 0 0.282v43.433l-0.901 3.446c-9.948 38.031-33.172 62.602-59.156 62.602h-617.851c-13.583 0-27.453-5.422-38.052-14.884-13.435-11.991-20.833-29.271-20.833-48.65v-450.115c0-39.619 30.449-66.243 58.885-66.243h617.856c28.728 0 49.644 28.785 58.829 53.437l1.695 4.531v406.994c0 1.777-0.169 3.512-0.471 5.166zM548.081 552.658c-6.349-5.299-14.531-5.304-20.869-0.010l-63.396 54.098c-0.015 0.015-0.036 0.026-0.051 0.041l-209.459 178.734h566.661l-272.886-232.863zM203.587 315.791v450.115c0 2.975 0.937 5.745 2.529 8.212l220.677-188.308-223.176-270.746c-0.015 0.246-0.031 0.481-0.031 0.727zM455.849 561.014l53.012-45.235c8.745-7.337 18.765-11.003 28.78-11.003s20.045 3.666 28.785 11.003l56.929 48.584 220.877-270.894h-608.916l220.534 267.546zM652.375 589.123l213.606 182.272c2.857-4.649 5.192-10.045 6.886-15.555v-35.886c0-1.777 0.164-3.507 0.471-5.161 0-0.092 0-0.189 0-0.287v-396.375l-220.964 270.991zM865.981 786.632c0-8.412-5.606-15.232-12.508-15.232h-630.671c-6.912 0-12.513 6.82-12.513 15.232v0c0 8.417 5.601 15.232 12.513 15.232h630.671c6.902 0 12.508-6.82 12.508-15.232v0zM859.233 301.548c0-8.422-5.601-15.237-12.503-15.237h-630.671c-6.912 0-12.513 6.815-12.513 15.237v0c0 8.407 5.601 15.232 12.513 15.232h630.671c6.907-0.005 12.503-6.83 12.503-15.232v0zM210.289 308.137c-6.917 0-12.513 4.214-12.513 9.421v474.88c0 5.212 5.596 9.421 12.513 9.421v0c6.907 0 12.508-4.214 12.508-9.421v-474.88c0.005-5.207-5.601-9.421-12.508-9.421v0zM870.892 292.634c-6.917 0-12.513 4.214-12.513 9.426v474.88c0 5.207 5.601 9.421 12.513 9.421v0c6.907 0 12.508-4.214 12.508-9.421v-474.88c0-5.207-5.606-9.426-12.508-9.426v0zM534.318 530.959c-4.111-6.769-10.081-9.876-13.338-6.932l-297.692 267.807c-3.261 2.939-2.58 10.793 1.531 17.567v0c4.101 6.758 10.076 9.871 13.338 6.932l297.682-267.807c3.277-2.944 2.575-10.803-1.521-17.567v0zM537.139 521.236c-4.070 6.799-4.726 14.659-1.454 17.572l299.013 265.636c3.277 2.908 9.226-0.236 13.307-7.035v0c4.065-6.794 4.721-14.664 1.449-17.572l-299.003-265.631c-3.292-2.929-9.236 0.241-13.312 7.030v0zM615.747 605.809c5.176 5.576 11.423 7.276 13.957 3.799l231.153-317.937c2.54-3.487 0.394-10.813-4.782-16.399v0c-5.176-5.565-11.423-7.265-13.957-3.789l-231.148 317.921c-2.55 3.497-0.394 10.829 4.777 16.404v0zM464.266 598.656c5.12-5.632 7.209-13.010 4.649-16.456l-233.902-314.941c-2.565-3.456-8.781-1.679-13.921 3.963v0c-5.12 5.652-7.199 13.020-4.639 16.471l233.892 314.926c2.57 3.476 8.796 1.684 13.921-3.963v0z" />
<glyph unicode="&#xe91d;" glyph-name="map-theatre" d="M960.229 880.491h-889.341c-25.853 0-46.805-20.735-46.805-46.335v-772.311c0-25.6 20.952-46.347 46.805-46.347h889.341c25.841 0 46.805 20.747 46.805 46.347v772.311c0 25.6-20.952 46.335-46.805 46.335v0zM929.017 851.013v-75.006h-93.61v75.006h93.61zM897.818 700.291v-486.569h-764.52v486.569h764.52zM757.392 851.013v-75.006h-93.61v75.006h93.61zM570.172 851.013v-75.006h-93.622v75.006h93.622zM382.94 851.013v-75.006h-93.61v75.006h93.61zM180.103 851.013v-75.006h-93.61v75.006h93.61zM102.099 44.999v74.994h93.598v-75.006l-93.598 0.012zM273.725 44.999v74.994h93.61v-75.006l-93.61 0.012zM460.957 44.999v74.994h93.61v-75.006l-93.61 0.012zM648.176 44.999v74.994h93.61v-75.006l-93.61 0.012zM851.013 44.999v74.994h93.598v-75.006l-93.598 0.012zM93.321 731.214h863.97v-568.462h-863.97v568.462z" />
<glyph unicode="&#xe91e;" glyph-name="map-ticket" d="M955.533 632.269l63.47 148.615h-190.411v-37.148c0 0 0-37.148-31.741-37.148-31.729 0-31.729 37.148-31.729 37.148v37.148h-698.088c-35.281 0-63.53-33.21-63.53-74.163v-520.537c0-40.941 28.43-74.067 63.53-74.067h698.088v37.136c0 0 0 37.172 31.729 37.172 31.741 0 31.741-37.172 31.741-37.172v-37.136h190.411l-63.47 74.139 63.47 159.476-63.47 63.603 63.47 160.066-63.47 62.868zM130.444 223.56c-23.601 0-38.906 29.068-28.37 53.801l126.94 297.254c11.68 27.346 45.071 27.346 56.739 0l126.94-297.254c10.536-24.733-4.768-53.801-28.37-53.801h-253.881zM552.507 223.56h-104.724c23.601 0 38.906 29.068 28.37 53.801l-57.197 133.924 24.757 58.027c8.188 19.17 31.536 19.17 39.725 0l88.853-208.087c7.442-17.279-3.287-37.665-19.784-37.665v0zM828.592 298.229c0-20.735-14.727-37.485-31.741-37.485-17.508 0-31.729 15.871-31.729 37.485v73.597c0 20.735 14.727 37.509 31.729 37.509 17.52 0 31.741-15.895 31.741-37.509v-73.597zM828.592 521.188c0-20.747-14.727-37.545-31.741-37.545-17.508 0-31.729 15.907-31.729 37.545v73.561c0 20.723 14.727 37.521 31.729 37.521 17.52 0 31.741-15.895 31.741-37.521v-73.561z" />
<glyph unicode="&#xe91f;" glyph-name="evaluate" horiz-adv-x="724" d="M366.096 485.518c-3.183-3.863-5.574-7.357-7.174-10.448s-2.979-6.474-4.157-10.153c-1.030-2.391-2.262-6.715-3.678-12.97-1.417-6.253-2.851-13.079-4.286-20.491s-2.778-14.55-3.991-21.411c-1.235-6.879-1.933-12.104-2.079-15.69-0.367-6.661-5.334-18.652-2.796-21.21 2.54-2.555 13.246 4.287 19.995 5.702 3.238 0.83 8.112 2.447 14.605 4.876 6.494 2.428 13.354 5.206 20.584 8.332 7.212 3.127 14.109 6.292 20.657 9.492 6.567 3.182 11.516 5.85 14.882 7.966 3.384 1.857 6.605 4.212 9.619 7.064 2.981 2.813 5.629 5.462 7.91 7.946l-77.771 63.791c-1.050-1.233-1.804-2.171-2.318-2.796v0 0zM647.807 682.264c-0.332 3.238-0.957 6.365-1.878 9.325-0.918 2.963-2.003 5.538-3.235 7.708h-0.019c-4.268 7.23-9.969 13.979-17.089 20.29-7.119 6.308-13.463 10.576-19.036 12.838-2.649 0.995-5.722 1.84-9.217 2.519-3.496 0.682-7.081 0.904-10.759 0.663s-7.339-1.103-11.020-2.613c-3.66-1.507-7.136-3.827-10.391-6.933-2.54-2.558-5.702-5.979-9.495-10.301-3.788-4.323-7.044-8.020-9.803-11.093l77.754-63.791c1.619 1.692 3.329 3.643 5.15 5.866 1.601 1.95 3.476 4.176 5.646 6.678 2.171 2.502 4.637 5.426 7.357 8.755 2.484 3.293 4.196 6.64 5.113 10.061 0.94 3.404 1.235 6.753 0.923 10.026v0 0zM394.367 520.413c-4.891-5.96-9.25-11.295-13.078-16.022l78.121-64.086c3.863 4.746 8.351 10.283 13.448 16.575 7.266 8.995 15.451 18.909 24.574 29.742l27.261 33.644 82.389 100.415-77.79 64.159-134.925-164.427zM317.413 457.717v0 0zM625.504 516.819c-24.346 7.54-59.985 18.578-59.985 18.578l-26.574-32.387-38.642-47.69c-12.934-15.357-24.538-29.414-34.836-42.162-2.004-2.473-21.009-21.487-36.075-27.817-30.36-12.757-90.614-45.345-111.978-32.381-9.451 5.734 20.893 127.548 20.893 127.548 2.846 3.516 12.603 18.697 15.9 22.711l87.263 106.347c0 0-53.138 74.163-64.462 91.356-11.323 17.193-22.82 12.473-32.113-0.696-9.294-13.171-96.252-136.408-96.252-136.408s-134.467-41.496-158.086-48.96c-23.618-7.465-23.947-14.748-7.293-37.017 16.655-22.269 95.816-128.116 95.816-128.116s-1.724-147.821-2.32-167.767c-0.597-19.945 0.223-27.234 22.369-19.696 22.147 7.534 162.069 55.148 162.069 55.148s130.054-44.746 150.81-51.319c20.756-6.571 33.873-1.803 33.474 26.857-0.397 28.66-2.17 156.778-2.17 156.778s76.944 103.009 96.207 128.636c19.26 25.623 10.329 30.919-14.014 38.457v0 0z" />
<glyph unicode="&#xe920;" glyph-name="index" horiz-adv-x="724" d="M688.031 473.997l-307.104 259.62c-0.798 0.673-1.644 1.197-2.504 1.749-0.196 0.26-0.322 0.538-0.523 0.783-8.183 9.735-22.71 11.010-32.449 2.841l-310.469-255.582c-9.734-8.183-11.009-22.715-2.84-32.449 8.17-9.737 22.712-11.011 32.448-2.828l32.927 27.105v-273.29c0-33.923 27.502-61.426 61.426-61.426h153.556v134.678c0 10.443 8.751 18.888 19.545 18.888h68.419c10.767 0 19.519-8.462 19.519-18.888v-134.68h153.569c33.923 0 61.427 27.504 61.427 61.426v256.245l23.727-20.056c9.661-8.31 24.020-7.018 32.13 2.889 8.088 9.903 6.832 24.663-2.799 32.973h-0.004z" />
<glyph unicode="&#xe921;" glyph-name="footprint" horiz-adv-x="724" d="M587.835 690.681v0zM545.998 690.681c0-23.104 18.73-41.835 41.836-41.835 23.104 0 41.835 18.73 41.835 41.835s-18.73 41.836-41.835 41.836c-23.105 0-41.836-18.731-41.836-41.836zM484.987 760.395v0zM434.785 760.395c0-27.726 22.476-50.202 50.202-50.202s50.2 22.476 50.2 50.202c0 27.725-22.476 50.201-50.2 50.201-27.727 0.001-50.202-22.476-50.202-50.201zM340.289 782.718v0zM281.72 782.718c0-32.347 26.222-58.568 58.569-58.568s58.569 26.221 58.569 58.568c0 32.348-26.222 58.569-58.569 58.569s-58.569-26.221-58.569-58.569zM168.431 774.351v0zM93.128 774.351c0-41.588 33.714-75.303 75.303-75.303s75.303 33.715 75.303 75.303c0 26.902-14.352 51.763-37.652 65.214-23.298 13.452-52.003 13.452-75.303 0-23.297-13.451-37.651-38.311-37.651-65.214zM444.759 680.691h-0.118c-1.59 0.034-3.097 0.234-4.635 0.234-1.591 0-3.113-0.201-4.652-0.234h-175.972c-1.557 0.050-3.080 0.234-4.62 0.234-1.571 0-3.094-0.184-4.651-0.234h-3.296v-0.182c-67.037-4.118-120.217-59.69-120.217-127.764 0-45.934 24.298-86.146 60.644-108.787v-0.135l2.442-1.455c0 0 72.375-38.471-2.442-220.786h0.050c-6.091-14.976-9.521-31.243-9.521-48.378 0-70.769 57.446-128.182 128.198-128.182 31.026 0 59.454 11.044 81.645 29.384v-0.033l0.032-0.168c127.866 105.206 209.944 263.893 212.339 441.725 0.050 1.608 0.249 3.147 0.249 4.755 0 86.846-69.262 157.445-155.474 160.006v0z" />
<glyph unicode="&#xe922;" glyph-name="map-extend" d="M244.284 807.171l107.963-3.986c31.44 2.384 55.005 29.827 52.609 61.267-2.396 31.452-29.827 54.993-61.267 52.597l-264.044 9.754c-31.44-2.396-54.993-29.827-52.609-61.279 0-0.096 0.024-0.193 0.036-0.289s0-0.205 0.012-0.301l0.084-0.482c0.361-3.721 1.048-7.357 2.071-10.837l47.407-248.209c2.396-31.44 29.839-54.993 61.279-52.597 31.452 2.384 54.993 29.827 52.597 61.267l-19.941 104.375 218.937-219.563c21.831-22.397 57.69-22.879 80.087-1.036 22.409 21.831 22.879 57.69 1.036 80.087l-226.258 229.232zM779.74 807.171l-107.975-3.986c-31.452 2.384-54.993 29.827-52.597 61.267 2.36 31.452 29.827 54.993 61.255 52.597l264.056 9.741c31.428-2.384 54.981-29.827 52.585-61.267 0-0.096-0.024-0.193-0.036-0.289 0-0.096 0-0.205 0-0.301l-0.108-0.482c-0.349-3.721-1.036-7.357-2.071-10.837l-47.419-248.209c-2.396-31.44-29.827-54.993-61.267-52.597-31.44 2.384-54.993 29.827-52.609 61.267l19.941 104.375-218.913-219.563c-21.831-22.397-57.702-22.867-80.099-1.036s-22.855 57.69-1.048 80.087l226.306 229.232zM244.284 88.841l107.963 3.986c31.44-2.396 55.005-29.839 52.609-61.291-2.396-31.416-29.827-54.981-61.267-52.585l-264.044-9.729c-31.44 2.396-54.993 29.839-52.609 61.279 0 0.096 0.024 0.181 0.036 0.277s0 0.205 0.012 0.289l0.084 0.458c0.361 3.769 1.048 7.393 2.071 10.849l47.407 248.221c2.396 31.416 29.839 54.993 61.279 52.597s54.993-29.839 52.597-61.279l-19.941-104.363 218.937 219.587c21.831 22.397 57.69 22.867 80.087 1.036 22.409-21.831 22.879-57.678 1.036-80.087l-226.258-229.244zM779.716 88.841l-107.975 3.986c-31.452-2.396-54.993-29.839-52.597-61.291 2.36-31.416 29.827-54.981 61.255-52.585l264.056-9.741c31.428 2.396 54.981 29.839 52.585 61.279 0 0.096-0.024 0.181-0.036 0.277 0 0.096 0 0.205 0 0.289l-0.108 0.458c-0.349 3.769-1.036 7.393-2.071 10.849l-47.407 248.221c-2.396 31.416-29.827 54.993-61.279 52.597-31.44-2.396-54.993-29.839-52.597-61.279l19.941-104.363-218.925 219.599c-21.831 22.397-57.702 22.867-80.099 1.036s-22.843-57.678-1.036-80.087l226.294-229.244z" />
<glyph unicode="&#xe923;" glyph-name="map-shrink" d="M269.125 601.395l-107.963 3.986c-31.44-2.384-55.005-29.827-52.609-61.267 2.396-31.452 29.827-54.993 61.267-52.597l264.032-9.741c31.44 2.384 54.993 29.827 52.609 61.267 0 0.096-0.024 0.193-0.036 0.289s0 0.205-0.012 0.301l-0.084 0.482c-0.361 3.721-1.048 7.357-2.071 10.837l-47.407 248.209c-2.396 31.44-29.839 54.993-61.279 52.597-31.452-2.384-54.993-29.827-52.597-61.267l19.941-104.375-218.937 219.563c-21.831 22.397-57.69 22.879-80.087 1.036-22.409-21.831-22.879-57.69-1.036-80.087l226.27-229.232zM754.851 601.395l107.975 3.986c31.452-2.384 54.993-29.827 52.597-61.267-2.36-31.452-29.827-54.993-61.255-52.597l-264.056-9.741c-31.428 2.384-54.981 29.827-52.585 61.267 0 0.096 0.024 0.193 0.036 0.289 0 0.096 0 0.205 0 0.301l0.108 0.482c0.349 3.721 1.036 7.357 2.071 10.837l47.419 248.209c2.396 31.44 29.827 54.993 61.267 52.597 31.44-2.384 54.993-29.827 52.609-61.267l-19.941-104.375 218.913 219.563c21.831 22.397 57.702 22.867 80.099 1.036s22.855-57.69 1.048-80.087l-226.306-229.232zM269.125 294.605l-107.963-3.986c-31.44 2.396-55.005 29.839-52.609 61.291 2.396 31.416 29.827 54.981 61.267 52.585l264.032 9.741c31.44-2.396 54.993-29.839 52.609-61.279 0-0.096-0.024-0.181-0.036-0.277s0-0.205-0.012-0.289l-0.084-0.458c-0.361-3.769-1.048-7.393-2.071-10.849l-47.407-248.221c-2.396-31.416-29.839-54.993-61.279-52.597s-54.993 29.839-52.597 61.279l19.941 104.363-218.937-219.587c-21.831-22.397-57.69-22.867-80.087-1.036-22.409 21.831-22.879 57.678-1.036 80.087l226.27 229.232zM754.851 294.605l107.975-3.986c31.452 2.396 54.993 29.839 52.597 61.291-2.36 31.416-29.827 54.981-61.255 52.585l-264.056 9.741c-31.428-2.396-54.981-29.839-52.585-61.279 0-0.096 0.024-0.181 0.036-0.277 0-0.096 0-0.205 0-0.289l0.108-0.458c0.349-3.769 1.036-7.393 2.071-10.849l47.407-248.221c2.396-31.416 29.827-54.993 61.279-52.597 31.44 2.396 54.993 29.839 52.597 61.279l-19.941 104.363 218.937-219.563c21.831-22.397 57.702-22.867 80.099-1.036s22.843 57.678 1.036 80.087l-226.306 229.208z" />
<glyph unicode="&#xe924;" glyph-name="map-recommended" d="M511.759 712.297c-131.637 334.907-505.823 256.759-508.279-131.925-1.373-213.482 178.176-293.28 297.711-378.617 115.91-82.773 198.418-195.974 211.351-244.199 11.054 47.238 102.954 163.679 210.255 246.499 117.319 90.587 299.084 165.172 297.711 378.63-2.481 389.647-383.169 451.155-508.749 129.614v0z" />
<glyph unicode="&#xe925;" glyph-name="icon-label" d="M993.437 473.094l-193.476 123.217c-9.252 5.903-21.841 9.216-34.961 9.216h-698.958c-13.095 0-25.66-3.301-34.924-9.168-9.264-5.879-14.469-13.842-14.469-22.142v-246.398c0-17.3 22.118-31.322 49.393-31.322h698.934c13.131 0 25.733 3.313 34.985 9.228l193.476 123.205c19.203 12.204 19.203 31.961 0 44.165v0z" />
<glyph unicode="&#xe926;" glyph-name="map-playsound" d="M538.262-44.493h-9.043l-350.32 236.324h-71.875c-25.841 0-50.429 9.958-69.25 28.020-19.278 18.508-29.887 43.048-29.887 69.106v303.84c0 26.046 10.621 50.586 29.887 69.094 18.821 18.074 43.421 28.020 69.25 28.020h70.852l350.308 270.088h10.079c53.548 0 97.114-43.566 97.114-97.114v-810.241c0.012-53.56-43.566-97.138-97.114-97.138v0zM107.024 630.716c-21.65 0-39.953-17.364-39.953-37.918v-303.84c0-20.555 18.303-37.918 39.953-37.918h89.985l349.104-235.518c17.171 3.624 30.079 18.881 30.079 37.112v810.253c0 17.894-12.463 32.933-29.164 36.895l-348.984-269.065h-91.021zM826.040 112.009c-9.428 0-18.7 4.491-24.432 12.848-9.248 13.474-5.816 31.898 7.67 41.145 95.729 65.722 152.89 174.191 152.89 290.149 0 118.078-58.798 227.643-157.285 293.1-13.619 9.043-17.316 27.418-8.272 41.037 9.055 13.607 27.418 17.316 41.037 8.272 115.043-76.451 183.703-204.451 183.703-342.397 0-135.478-66.77-262.177-178.598-338.941-5.118-3.528-10.958-5.214-16.713-5.214v0zM804.1 311.125c-9.416 0-18.688 4.491-24.42 12.848-9.26 13.474-5.828 31.886 7.658 41.145 30.368 20.856 48.503 55.258 48.503 92.044 0 37.449-18.652 72.212-49.912 92.972-13.607 9.043-17.316 27.418-8.26 41.025 9.043 13.619 27.406 17.328 41.037 8.272 47.792-31.753 76.33-84.94 76.33-142.269 0-56.306-27.755-108.963-74.223-140.836-5.106-3.516-10.934-5.202-16.713-5.202v0z" />
<glyph unicode="&#xe928;" glyph-name="map-getlocation" d="M973.51 400.521h-50.441c-21.771-189.303-171.879-339.254-361.133-361.073v-50.514c0-26.202-21.277-47.479-47.491-47.479-26.226 0-47.491 21.289-47.491 47.479v50.514c-189.267 21.831-339.351 171.783-361.121 361.073h-50.453c-26.226 0-47.491 21.265-47.491 47.467 0 26.25 21.277 47.503 47.491 47.503h50.502c21.819 189.267 171.795 339.363 361.073 361.145v50.429c0 26.226 21.265 47.491 47.491 47.491 26.214 0 47.491-21.277 47.491-47.491v-50.502c189.255-21.819 339.363-171.783 361.133-361.073h50.441c26.238 0 47.491-21.253 47.491-47.503-0.012-26.202-21.277-47.467-47.491-47.467v0zM736.054 495.491h91.033c-20.603 136.73-128.482 244.621-265.151 265.248v-91.117c0-26.214-21.277-47.491-47.491-47.491-26.226 0-47.491 21.277-47.491 47.491v91.057c-136.742-20.639-244.633-128.506-265.26-265.188h91.117c26.214 0 47.491-21.253 47.491-47.503 0-26.202-21.277-47.467-47.491-47.467h-91.021c20.627-136.73 128.47-244.609 265.151-265.236v91.105c0 26.226 21.265 47.479 47.491 47.479 26.214 0 47.491-21.265 47.491-47.479v-91.105c136.67 20.627 244.549 128.506 265.151 265.236h-91.033c-26.214 0-47.479 21.265-47.479 47.467 0.012 26.25 21.277 47.503 47.491 47.503v0zM514.444 400.521c-26.226 0-47.491 21.265-47.491 47.467 0 26.25 21.265 47.503 47.491 47.503 26.214 0 47.491-21.253 47.491-47.503 0-26.202-21.277-47.467-47.491-47.467v0z" />
<glyph unicode="&#xe929;" glyph-name="product-chart2" d="M345.227 160.596c13.017 0 25.335-2.396 36.991-7.201s21.927-11.463 30.826-20.037c8.911-8.561 15.762-18.664 20.555-30.32 4.805-11.644 7.189-23.974 7.189-36.991s-2.384-25.335-7.189-36.991c-4.792-11.644-11.644-21.747-20.555-30.308-8.899-8.573-19.182-15.413-30.826-20.555s-23.974-7.719-36.991-7.719c-13.703 0-26.202 2.577-37.509 7.719-11.295 5.142-21.41 11.981-30.308 20.555-8.911 8.561-15.762 18.664-20.555 30.308-4.792 11.656-7.189 23.974-7.189 36.991s2.396 25.347 7.189 36.991c4.792 11.656 11.644 21.759 20.555 30.32 8.899 8.573 19.013 15.244 30.308 20.037 11.307 4.805 23.806 7.201 37.509 7.201v0zM772.72 158.537c13.017 0 25.516-2.396 37.509-7.189 11.981-4.792 22.265-11.475 30.826-20.049 8.561-8.561 15.413-18.664 20.555-30.308 5.142-11.656 7.706-23.986 7.706-36.991 0-13.029-2.565-25.347-7.706-36.991-5.142-11.656-11.993-21.759-20.555-30.32-8.561-8.573-18.833-15.413-30.826-20.555s-24.492-7.719-37.509-7.719c-13.029 0-25.347 2.577-36.991 7.719s-21.759 11.981-30.32 20.555c-8.573 8.561-15.413 18.664-20.555 30.32-5.142 11.644-7.706 23.962-7.719 36.991 0 13.005 2.577 25.335 7.719 36.991 5.142 11.644 11.981 21.747 20.555 30.308 8.561 8.573 18.664 15.256 30.32 20.049 11.632 4.792 23.974 7.189 36.991 7.189v0zM945.358 742.231c19.182 0 34.077-2.565 44.698-7.706s18.158-11.475 22.614-19.013 6.502-15.582 6.165-24.143c-0.337-8.561-1.541-15.931-3.6-22.096s-6.334-18.833-12.836-38.027c-6.502-19.182-13.872-40.242-22.096-63.205-8.224-22.951-16.28-45.721-24.143-68.335-7.887-22.602-13.884-40.411-17.99-53.44-8.899-27.406-20.217-46.408-33.909-57.040-13.703-10.608-30.477-15.919-50.357-15.919h-539.503l15.413-92.49h517.912c32.873 0 49.322-14.040 49.322-42.133 0-13.691-3.251-25.516-9.766-35.438-6.502-9.934-19.338-14.907-38.52-14.907h-538.467c-13.703 0-25.167 3.095-34.414 9.26-9.26 6.165-16.966 14.221-23.119 24.143-6.165 9.934-11.138 20.735-14.907 32.367-3.769 11.656-6.671 22.614-8.73 32.885-0.686 4.106-2.565 14.040-5.647 29.802s-6.852 35.45-11.307 59.087-9.416 50.008-14.895 79.124c-5.479 29.116-10.958 58.413-16.437 87.854-13.017 69.202-27.743 146.267-44.192 231.219h-77.065c-10.283 0-18.833 2.565-25.684 7.706-6.852 5.13-12.511 11.295-16.954 18.496-4.455 7.189-7.538 14.895-9.248 23.119s-2.565 15.762-2.565 22.602c0 13.703 4.624 25.010 13.872 33.909s21.711 13.366 37.473 13.366h103.785c13.703 0 24.661-2.059 32.885-6.165s14.727-9.248 19.531-15.413c4.792-6.165 8.224-12.68 10.283-19.531 2.047-6.852 3.769-12.68 5.13-17.472 1.373-5.479 2.745-13.185 4.118-23.119 1.361-9.934 2.733-20.037 4.106-30.32 2.059-12.33 4.118-25.347 6.165-39.050l702.88 0.024z" />
<glyph unicode="&#xe92a;" glyph-name="map-stopsound" d="M500.187 924.755l-248.101-236.601h-154.070c-60.376 0-90.021-32.464-90.021-90.021v-299.951c0-56.51 30.561-89.937 89.889-90.033l59.894 60.147h-29.839c-45.613 0-59.954 15.244-59.954 59.954v239.865c0 43.686 15.256 59.942 59.954 59.942h150.505c78.125 75.692 179.080 173.817 238.359 231.845 30.597 30.067 60.917 48.057 60.917-22.879v-147.531l59.954 60.147v106.386c0.157 104.736-72.26 129.782-137.489 68.732v0 0zM207.329 208.16h44.746l32.704-31.163 45.709 45.842c-14.63 15.497-29.068 30.802-42.831 45.468h-20.386l-59.942-60.147zM340.904 123.448l159.284-151.878c66.481-62.411 137.501-34.908 137.501 68.768v380.821l-59.954-60.147v-304.551h0.132c0-68.106-30.212-56.908-61.206-26.431-34.282 33.897-82.821 84.133-132.792 136.537l-42.964-43.12zM637.688 530.929v108.926l-59.954-60.147v-108.914l59.954 60.135zM783.642 300.722c1.686 1.385 3.167 2.83 4.503 4.455l-0.048 0.048c15.497 18.893 27.527 40.917 35.643 64.951 8.2 24.083 12.463 50.225 12.463 77.27 0 26.997-4.263 53.139-12.463 77.27-6.719 19.892-16.172 38.424-28.020 54.969l-46.131-46.287c9.296-11.524 16.497-24.805 21.337-39.195 4.985-14.57 7.574-30.453 7.574-46.757h0.048c0-16.268-2.589-32.102-7.622-46.793-4.985-14.739-12.427-28.357-22.072-40.098-6.129-7.49-9.2-17.52-9.2-27.635 0-10.175 3.071-20.205 9.2-27.683h0.048c1.493-1.83 2.974-3.299 4.467-4.503 4.66-3.841 9.934-5.708 15.16-5.708 5.178-0.012 10.44 1.903 15.112 5.696v0 0zM914.616 183.318c0.759 0.71 1.493 1.433 2.264 2.252 66.047 72.092 99.040 166.954 99.040 261.876h0.048c0 93.008-31.753 185.991-95.247 257.553l-50.706-50.791c52.151-57.173 78.233-131.986 78.233-206.763 0-74.922-26.19-149.976-78.594-207.196-6.815-7.442-10.235-17.364-10.235-27.346s3.408-19.892 10.235-27.346c0.759-0.807 1.481-1.529 2.252-2.252 6.201-5.659 13.763-8.489 21.337-8.489 7.61 0.012 15.184 2.842 21.373 8.501v0zM55.005 56.318l834.432 836.961 54.812-54.812-834.42-836.985-54.824 54.837z" />
<glyph unicode="&#xe92b;" glyph-name="map-cancel" d="M825.365 598.096c59.677-35.57 132.901-131.528 163.354-247.053 30.453-115.501 25.419-218.961 25.419-218.961s-39.448 63.711-55.439 86.036c-15.991 22.337-83.375 105.531-187.966 153.769-104.604 48.214-279.433 39.628-279.433 39.628v-200.802l-481.788 341.289 481.8 341.277v-202.645c0 0 115.766-8.718 176.25-21.241 101.906-21.097 157.802-71.297 157.802-71.297v0z" />
<glyph unicode="&#xe92c;" glyph-name="coupon-all" d="M760.663 736.178c-19.107 31.852 19.095 38.213 19.095 38.213v31.864h-535.046v-31.852c0 0 38.225-6.361 19.107-38.213-19.107-31.852-121.025-159.238-261.156-159.238 0 0 44.586-89.184 184.718-101.918v-267.529h133.771v261.156h38.213v-261.156h76.439v261.156h140.143v-261.156h76.439v261.156h50.947v-261.156h140.143v273.89c133.771 6.361 178.357 95.545 178.357 95.545-140.143 0.012-242.074 133.771-261.168 159.238v0zM142.794 92.841h732.509v101.918h-732.509v-101.918z" />
<glyph unicode="&#xe931;" glyph-name="map-enlarge" d="M902.535 392.311h-335.818v-335.818c0-30.907-25.058-55.965-55.97-55.965s-55.97 25.058-55.97 55.965v335.818h-335.818c-30.912 0-55.97 25.058-55.97 55.976 0 30.912 25.058 55.965 55.97 55.965h335.818v335.818c0 30.912 25.058 55.97 55.97 55.97s55.97-25.058 55.97-55.97v-335.818h335.818c30.912 0 55.97-25.053 55.97-55.965 0-30.919-25.058-55.976-55.97-55.976z" />
<glyph unicode="&#xe932;" glyph-name="map-narrow" d="M835.232 383.354h-646.465c-35.556 0-64.646 29.091-64.646 64.646s29.091 64.646 64.646 64.646h646.465c35.556 0 64.646-29.091 64.646-64.646s-29.091-64.646-64.646-64.646z" />
<glyph unicode="&#xe933;" glyph-name="map-wc" d="M502.138 896.783h-6.033c-3.323 0-6.021-2.709-6.033-6.033v-848.184c0.012-3.323 2.709-6.033 6.033-6.033h6.033c3.323 0 6.021 2.709 6.033 6.033v848.172c-0.012 3.335-2.709 6.033-6.033 6.045v0zM800.777 753.803c39.026 0 70.659 31.994 70.659 71.478 0 39.496-31.633 71.49-70.659 71.49-39.038 0-70.671-31.994-70.671-71.49 0-39.472 31.633-71.478 70.671-71.478v0zM992.367 473.997l-60.604 201.898c-11.764 35.727-46.986 63.831-98.426 63.831h-65.168c-51.453 0-86.686-28.105-98.45-63.831l-60.628-201.898c-12.547-43.397 37.039-58.81 50.008-18.279l64 184.595h7.369c0 0-84.061-330.548-87.601-342.927-1.782-6.213 0.735-10.669 7.225-10.669h72.754l0.048-217.070c0-44.156 65.337-44.156 65.337 0v218.756h25.058l-0.048-218.756c0-44.156 65.409-44.156 65.409 0l0.024 217.070h72.706c6.502 0 9.055 4.455 7.273 10.669-3.564 12.379-87.661 342.927-87.661 342.927h7.417l63.976-184.595c12.981-40.543 62.579-25.142 49.984 18.279v0zM197.515 752.539c39.411 0 71.381 31.862 71.381 71.165 0 39.315-31.97 71.177-71.381 71.177s-71.381-31.862-71.381-71.177c0-39.291 31.97-71.165 71.381-71.165v0zM274.267 738.523h-153.443c-68.829 0-91.238-17.665-91.238-92.382v-218.503c0-42.446 57.462-42.446 57.462 0l4.925 199.839h14.751v-547.089c0-56.799 78.137-55.15 78.137 0l4.961 317.544h15.485l4.901-317.544c0-55.15 78.125-56.799 78.125 0v547.089h14.739l4.949-199.839c0-42.446 57.377-42.446 57.377 0v218.503c-0.012 74.741-22.361 92.382-91.129 92.382v0z" />
<glyph unicode="&#xe935;" glyph-name="news-heart_empty" d="M736.018 884.488c123.545 0 224.006-112.804 224.006-251.412 0-213.699-296.917-487.339-448.036-604.153-151.119 116.657-447.988 390.057-447.988 604.153 0 138.608 100.485 251.412 224.006 251.412 67.962 0 131.528-34.173 174.371-93.814l49.635-69.057 49.635 69.057c42.614 59.509 106.723 93.995 174.371 93.814zM736.018 956.99c-86.879 0.132-169.206-44.156-224.006-120.522-54.812 76.367-137.115 120.655-224.006 120.522-159.079 0-288.006-145.027-288.006-323.913 0-322.42 512.012-691.056 512.012-691.056s512.012 368.623 512.012 691.056c0 178.887-128.939 323.913-288.006 323.913v0z" />
<glyph unicode="&#xe936;" glyph-name="news-heart_full" d="M736.018 956.99c-86.879 0.132-169.206-44.156-224.006-120.522-54.812 76.367-137.115 120.655-224.006 120.522-159.079 0-288.006-145.027-288.006-323.913 0-322.42 512.012-691.056 512.012-691.056s512.012 368.623 512.012 691.056c0 178.887-128.939 323.913-288.006 323.913z" />
<glyph unicode="&#xe937;" glyph-name="map-road" d="M141.667 482.535h56.871v-318.374c23.264 3.444 47.094 7.032 71.514 10.777v393.754h-68.937v-28.43h-62.037v292.1h282.624v-263.658h-91.334v-145.617h89.612v-58.593h-89.612v-180.513c35.895 5.744 72.658 11.909 110.287 18.52-1.156-19.531-1.722-40.495-1.722-62.904-112.021-18.953-222.886-37.906-332.595-56.871l-17.231 67.215c17.231 1.999 34.751 4.154 52.561 6.454v326.141zM359.664 627.296v146.471h-158.537v-146.471h158.537zM430.323 622.119c60.315 74.103 112.587 162.848 156.815 266.247l63.759-23.264c-12.342-25.853-24.709-50.55-37.039-74.103h272.268v-57.726c-37.629-70.948-87.457-136.441-149.494-196.455 56.583-38.773 126.23-67.793 208.954-87.035-11.487-25.275-20.964-49.105-28.43-71.514-90.19 30.742-166.725 69.37-229.617 115.898-62.615-48.539-138.584-91.767-227.907-129.686-5.756 11.487-17.231 31.874-34.462 61.17 77.824 27.852 148.35 65.204 211.531 112.021-34.751 34.462-66.059 77.691-93.923 129.686-23.264-35.907-46.383-67.938-69.358-96.078-13.799 18.387-28.165 35.329-43.096 50.839zM494.082 367.937h374.824v-335.184h-64.626v41.362h-245.572v-41.362h-64.626v335.184zM804.269 307.621h-245.56v-173.191h245.572v173.191zM812.035 732.406h-230.063c-1.722-2.866-3.432-5.744-5.166-8.61 28.996-58.304 65.192-107.132 108.565-146.484 51.694 46.239 93.911 97.945 126.663 155.093z" />
<glyph unicode="&#xe938;" glyph-name="map-service-point" d="M511.952 130.685c165.665 0 300.023 129.445 300.023 289.126 0 159.621-134.346 289.066-300.023 289.066-165.593 0-299.915-129.445-299.915-289.066 0-159.681 134.322-289.126 299.915-289.126v0zM787.013 155.9v425.856c-55.258 119.607-153.696 194.324-273.135 194.324-122.124 0-222.417-78.161-276.904-202.633v-378.786c27.792-21.482 62.784-41.904 106.903-59.629 17.58 22.457 48.491 30.609 75.186 17.725 30.934-14.883 44.264-52.717 29.501-84.446-14.582-31.717-51.633-45.203-82.7-30.128-24.649 11.921-37.991 38.135-35.161 64.361-49.141 19.772-88.059 43-118.837 67.48-109.396 12.716-194.312 107.53-194.312 222.573 0 93.718 56.51 174.082 136.561 207.353 66.709 161.535 198.081 264.044 359.761 264.044 167.496 0 302.311-110.034 366.66-281.287 74.416-35.968 125.905-113.189 125.905-202.801 0.012-123.713-98.258-224.006-219.43-224.006v0z" />
<glyph unicode="&#xe939;" glyph-name="map-street-signs" d="M894.266 703.085l-104.206-86.879h-625.647v173.938h625.647l104.206-87.059zM129.722 390.454l104.218 86.867h625.647v-173.914h-625.647l-104.218 87.047zM512.096 929.030h-69.551v-312.823h69.551v312.823zM512.096 581.527h-69.551v-278.132h69.551v278.132zM442.545-44.108h69.551v312.811h-69.551v-312.811z" />
<glyph unicode="&#xe93a;" glyph-name="map-catering" d="M1003.77 476.683c0 87.372-207.654 158.2-463.822 158.2s-463.834-70.815-463.834-158.2c0-4.696 1.276-9.236 1.77-13.944 0.277-2.625 0.433-6.213 0.807-8.429 0.915-42.867 12.511-146.435 93.598-217.636 103.363-90.792 121.341-97.981 186.064-123.159 64.722-25.167 226.535-50.333 357.774 0 131.239 50.345 250.63 131.925 284.779 342.252zM541.742 593.532c232.579 0 421.124-51.922 421.124-115.971 0-64.012-188.532-115.947-421.124-115.947-232.567 0-421.112 51.935-421.112 115.947 0 64.048 188.544 115.971 421.112 115.971zM852.771 727.469c0 0-778.452-409.901-828.797-435.068 0 0-27.864 0-14.365 19.772l787.423 454.852c0 0 46.745 8.983 55.74-39.556zM1018.16 690.61l-942.046-443.159c0 0-19.832 7.273-12.583 23.384l899.323 466.52c0 0 58.894-3.6 55.306-46.745z" />
<glyph unicode="&#xe93b;" glyph-name="map-c-service-point" d="M397.366 420.847v-57.425c14.51-11.235 32.801-21.879 55.848-31.163 5.37 6.888 13.149 11.090 21.458 12.126-34.438 15.582-62.073 42.771-77.306 76.463zM542.007 667.165c-63.795 0-116.175-40.832-144.641-105.856v-20.049c24.143 53.428 79.353 90.816 143.654 90.816 64.313 0 119.523-37.376 143.678-90.78v24.348c-28.863 62.495-80.28 101.521-142.69 101.521zM894.579 643.179c-17.316 45.059-45.059 86.638-83.206 124.761-34.643 34.655-76.21 62.398-121.269 79.726-52.007 20.795-100.534 31.199-152.528 31.199-48.515 0-100.497-10.404-145.556-27.731-45.059-20.795-86.65-48.527-121.305-83.194-34.655-34.655-62.386-76.246-83.182-124.761-17.328-45.059-27.719-93.574-27.719-145.568 0-38.135 6.936-79.738 17.328-117.825 10.392-38.159 31.187-72.802 51.995-104.002 20.795-31.175 48.515-58.931 79.714-79.702 27.731-20.808 62.675-40.652 97.054-51.959 3.504-1.168 3.938-2.204 6.924-3.48l114.369-114.393c6.936-6.888 17.328-6.888 24.263 0 0 0 0.759 0.12 3.504 3.48l114.369 114.393c0 0 2.517 1.927 6.912 3.432 34.872 14.703 65.854 31.211 97.042 52.007 31.223 24.251 58.955 51.959 79.702 79.69 24.312 31.211 41.627 69.31 52.007 103.977 13.872 38.135 17.328 76.246 17.328 114.381-0.012 51.995-10.404 100.51-27.743 145.568zM684.698 343.192v77.607c-24.155-53.404-79.365-90.768-143.678-90.768-13.763 0-27.021 1.878-39.737 5.094 9.537-9.585 12.716-24.589 6.611-37.702-7.61-16.557-26.973-23.589-43.192-15.726-12.872 6.249-19.844 19.88-18.363 33.583-25.672 10.332-45.998 22.481-62.073 35.293-57.148 6.635-101.509 56.161-101.509 116.26 0 48.96 29.513 90.949 71.333 108.324 34.86 84.386 103.484 137.934 187.93 137.934 87.505 0 157.911-57.474 191.542-146.941 38.882-18.785 65.758-59.123 65.758-105.928 0-64.626-51.308-117.030-114.622-117.030z" />
<glyph unicode="&#xe93c;" glyph-name="map-c-shopping" d="M663.083 550.581c0-15.555-13.888-28.165-31.019-28.165s-31.019 12.61-31.019 28.165c0 15.555 13.888 28.165 31.019 28.165s31.019-12.61 31.019-28.165zM538.997 719.606c-45.023 0-82.592-48.406-91.202-112.683h182.379c-8.573 64.277-46.167 112.683-91.177 112.683zM476.96 550.581c0-15.555-13.893-28.165-31.031-28.165s-31.031 12.61-31.031 28.165c0 15.555 13.893 28.165 31.031 28.165s31.031-12.61 31.031-28.165zM896.084 643.179c-17.316 45.059-45.059 86.638-83.182 124.761-34.667 34.655-76.234 62.398-121.293 79.726-52.007 20.795-100.534 31.199-152.516 31.199-48.515 0-100.497-10.404-145.556-27.731-45.059-20.795-86.65-48.527-121.305-83.194-34.655-34.655-62.386-76.246-83.182-124.761-17.328-45.059-27.719-93.574-27.719-145.568 0-38.135 6.936-79.738 17.328-117.825 10.392-38.159 31.187-72.802 51.995-104.002 20.795-31.175 48.515-58.931 79.714-79.702 27.731-20.808 62.675-40.652 97.054-51.959 3.504-1.168 3.938-2.204 6.924-3.48l114.369-114.393c6.936-6.888 17.328-6.888 24.251 0 0 0 0.771 0.12 3.504 3.48l114.369 114.393c0 0 2.517 1.927 6.912 3.432 34.872 14.703 65.854 31.211 97.042 52.007 31.223 24.251 58.955 51.959 79.702 79.69 24.312 31.211 41.627 69.31 52.007 103.977 13.872 38.135 17.328 76.246 17.328 114.381-0.012 51.995-10.404 100.51-27.743 145.568zM717.607 297.037h-357.208c-19.796 0-34.872 12.656-33.668 28.177l23.95 253.604c1.204 15.521 16.316 28.117 33.282 28.117h32.632c9.862 79.943 60.905 140.836 122.389 140.836 61.459 0 112.515-60.893 122.377-140.836h32.668c17.159 0 32.054-12.619 33.258-28.117l23.974-253.64c1.216-15.509-14.1-28.141-33.656-28.141z" />
<glyph unicode="&#xe93d;" glyph-name="map-c-theatre" d="M443.942 661.349h39.556v-31.693h-39.556v31.693zM358.256 661.349h39.544v-31.693h-39.544v31.693zM602.166 661.349h39.532v-31.693h-39.532v31.693zM674.655 661.349h39.556v-31.693h-39.556v31.693zM523.054 661.349h39.556v-31.693h-39.556v31.693zM364.842 352.464h39.544v-31.681h-39.544v31.681zM516.467 352.464h39.532v-31.681h-39.532v31.681zM437.355 352.464h39.544v-31.681h-39.544v31.681zM681.266 352.464h39.544v-31.681h-39.544v31.681zM595.555 352.464h39.532v-31.681h-39.532v31.681zM893.050 643.179c-17.316 45.059-45.059 86.638-83.206 124.761-34.643 34.655-76.222 62.398-121.269 79.726-51.983 20.795-100.51 31.199-152.504 31.199-48.515 0-100.497-10.404-145.556-27.731-45.059-20.795-86.65-48.527-121.305-83.194-34.655-34.655-62.398-76.246-83.182-124.761-17.328-45.059-27.731-93.574-27.731-145.568 0-38.135 6.936-79.738 17.328-117.825 10.392-38.159 31.187-72.802 51.983-104.002 20.808-31.175 48.515-58.931 79.714-79.702 27.731-20.808 62.675-40.652 97.054-51.959 3.504-1.168 3.938-2.204 6.924-3.48l114.369-114.393c6.936-6.888 17.316-6.888 24.263 0 0 0 0.759 0.12 3.504 3.48l114.369 114.393c0 0 2.517 1.927 6.9 3.432 34.872 14.703 65.866 31.211 97.054 52.007 31.223 24.251 58.955 51.959 79.702 79.69 24.312 31.211 41.627 69.31 52.007 103.977 13.872 38.135 17.328 76.246 17.328 114.381-0.012 51.995-10.404 100.51-27.743 145.568zM747.205 327.911c0-10.825-8.887-19.591-19.808-19.591h-375.752c-10.922 0-19.772 8.766-19.772 19.591v326.31c0 10.813 8.862 19.579 19.772 19.579h375.764c10.91 0 19.796-8.766 19.808-19.579v-326.31z" />
<glyph unicode="&#xe93e;" glyph-name="map-c-ticket" d="M682.024 474.708c-8.489 0-15.81-8.369-15.81-18.724v-36.702c0-10.813 7.056-18.7 15.81-18.7 8.453 0 15.81 8.357 15.81 18.7v36.702c0.012 10.789-7.020 18.724-15.81 18.724zM525.667 504.607c-4.082 9.561-15.738 9.561-19.82 0l-12.354-28.935 28.538-66.806c5.262-12.318-2.372-26.84-14.137-26.84h52.224c8.236 0 13.583 10.175 9.874 18.797l-44.324 103.785zM682.024 585.898c-8.489 0-15.81-8.381-15.81-18.712v-36.69c0-10.789 7.056-18.724 15.81-18.724 8.453 0 15.81 8.381 15.81 18.724v36.69c0.012 10.777-7.020 18.712-15.81 18.712zM427.060 557.143c-5.816 13.631-22.481 13.631-28.297 0l-63.326-148.278c-5.262-12.318 2.372-26.84 14.149-26.84h126.651c11.764 0 19.399 14.51 14.149 26.84l-63.326 148.278zM896.084 643.179c-17.316 45.059-45.059 86.638-83.182 124.761-34.667 34.655-76.234 62.398-121.293 79.726-52.007 20.795-100.534 31.199-152.516 31.199-48.515 0-100.497-10.404-145.556-27.731-45.059-20.795-86.65-48.527-121.305-83.194-34.655-34.655-62.386-76.246-83.182-124.761-17.328-45.059-27.719-93.574-27.719-145.568 0-38.135 6.936-79.738 17.328-117.825 10.392-38.159 31.187-72.802 51.995-104.002 20.795-31.175 48.515-58.931 79.714-79.702 27.731-20.808 62.675-40.652 97.054-51.959 3.504-1.168 3.938-2.204 6.924-3.48l114.369-114.393c6.936-6.888 17.328-6.888 24.251 0 0 0 0.771 0.12 3.504 3.48l114.369 114.393c0 0 2.517 1.927 6.912 3.432 34.872 14.703 65.854 31.211 97.042 52.007 31.235 24.251 58.955 51.959 79.702 79.69 24.324 31.211 41.627 69.31 52.007 103.977 13.872 38.135 17.328 76.246 17.328 114.381-0.012 51.995-10.404 100.51-27.743 145.568zM792.781 554.542l-31.633-79.834 31.633-31.729-31.633-79.545 31.633-36.955h-94.97v18.496c0 0 0 18.532-15.81 18.532s-15.81-18.532-15.81-18.532v-18.496h-348.237c-17.508 0-31.693 16.497-31.693 36.907v259.661c0 20.422 14.1 36.991 31.693 36.991h348.237v-18.532c0 0 0-18.532 15.81-18.532 15.834 0 15.834 18.532 15.834 18.532v18.532h94.97l-31.657-74.127 31.633-31.368z" />
<glyph unicode="&#xe93f;" glyph-name="map-c-wc" d="M894.579 643.179c-17.316 45.059-45.059 86.638-83.206 124.761-34.643 34.655-76.21 62.398-121.269 79.726-52.007 20.795-100.534 31.199-152.528 31.199-48.515 0-100.497-10.404-145.556-27.731-45.059-20.795-86.65-48.527-121.305-83.194-34.655-34.655-62.386-76.246-83.182-124.761-17.328-45.059-27.719-93.574-27.719-145.568 0-38.135 6.936-79.738 17.328-117.825 10.392-38.159 31.187-72.802 51.995-104.002 20.795-31.175 48.515-58.931 79.714-79.702 27.731-20.808 62.675-40.652 97.054-51.959 3.504-1.168 3.938-2.204 6.924-3.48l114.369-114.393c6.936-6.888 17.328-6.888 24.263 0 0 0 0.759 0.12 3.504 3.48l114.369 114.393c0 0 2.517 1.927 6.912 3.432 34.872 14.703 65.854 31.211 97.042 52.007 31.223 24.251 58.955 51.959 79.702 79.69 24.312 31.211 41.627 69.31 52.007 103.977 13.872 38.135 17.328 76.246 17.328 114.381-0.012 51.995-10.404 100.51-27.743 145.568zM376.233 715.162c20.651 0 37.413-16.701 37.413-37.304 0-20.591-16.762-37.292-37.413-37.292s-37.401 16.701-37.401 37.292c0 20.603 16.75 37.304 37.401 37.304zM464.232 470.289c0-22.252-30.079-22.252-30.079 0l-2.601 104.736h-7.719v-286.742c0-29.778-40.941-28.899-40.941 0l-2.565 166.424h-8.116l-2.601-166.424c0-28.899-40.953-29.778-40.953 0v286.742h-7.731l-2.577-104.736c0-22.252-30.116-22.252-30.116 0v114.514c0 39.159 11.74 48.418 47.816 48.418h80.412c36.040 0 47.744-9.248 47.768-48.418v-114.514zM539.045 268.475c0-1.758-1.409-3.155-3.155-3.155h-3.179c-1.758 0-3.179 1.397-3.179 3.155v444.52c0 1.746 1.409 3.167 3.179 3.167h3.179c1.734 0 3.155-1.421 3.155-3.167v-444.52zM692.404 716.15c20.434 0 37.015-16.774 37.015-37.461s-16.581-37.461-37.015-37.461c-20.458 0-37.039 16.774-37.039 37.461s16.581 37.461 37.039 37.461zM766.591 485.015l-33.511 96.741h-3.889c0 0 44.059-173.24 45.938-179.73 0.963-3.263-0.397-5.599-3.805-5.599h-38.099l-0.024-113.755c0-23.144-34.282-23.144-34.282 0l0.024 114.646h-13.149v-114.646c0-23.144-34.258-23.144-34.258 0l-0.024 113.755h-38.123c-3.396 0-4.72 2.336-3.769 5.599 1.878 6.49 45.914 179.73 45.914 179.73h-3.829l-33.535-96.741c-6.84-21.253-32.825-13.173-26.226 9.573l31.777 105.82c6.177 18.724 24.649 33.451 51.597 33.451h34.149c26.973 0 45.396-14.727 51.573-33.451l31.777-105.82c6.599-22.758-19.411-30.838-26.226-9.573z" />
<glyph unicode="&#xe940;" glyph-name="map-u-exit" d="M951.318 673.403c-18.652 52.163-52.187 100.606-93.164 141.595-3.733 3.733-3.733 3.733-3.733 3.733-44.71 40.977-93.176 74.524-145.316 96.873-104.339 44.722-231.050 44.722-339.11 0-55.896-22.349-104.339-55.884-145.328-96.873s-74.524-89.419-96.885-145.328c-22.361-55.896-33.547-111.78-33.547-171.409 0-48.43 7.466-93.152 22.361-137.862 14.907-44.71 37.256-85.723 63.35-122.979 26.070-37.232 58.437-72.814 93.152-100.606 31.464-25.191 70.827-42.422 108.059-59.593l119.246-119.234c10.608-8.212 26.082-14.907 40.989-14.907 14.883 0 22.71 7.743 33.535 18.604 3.733 3.769 3.733 3.769 3.733 3.769l119.246 119.186c38.123 15.437 74.512 33.559 108.071 59.641 37.256 26.082 67.071 59.617 93.152 93.152 29.827 37.256 48.443 78.269 63.35 122.979s22.349 93.14 22.349 137.862c0.012 59.605-11.186 119.222-33.511 171.397zM906.488 383.229c-10.38-34.667-27.707-72.766-52.007-103.977-20.759-27.731-48.479-55.439-79.702-79.69-31.187-20.808-62.17-37.316-97.042-52.007-4.395-1.505-6.912-3.432-6.912-3.432l-114.369-114.393c-2.733-3.36-3.504-3.48-3.504-3.48-6.912-6.888-17.316-6.888-24.251 0l-114.369 114.393c-2.986 1.276-3.42 2.312-6.924 3.48-34.378 11.307-69.322 31.163-97.054 51.959-31.199 20.783-58.919 48.527-79.714 79.702-20.808 31.199-41.603 65.842-51.995 104.002-10.392 38.087-17.328 79.69-17.328 117.825 0 51.995 10.392 100.51 27.719 145.568 20.795 48.515 48.527 90.106 83.182 124.761 34.655 34.667 76.246 62.398 121.305 83.194 45.059 17.328 97.042 27.731 145.556 27.731 51.983 0 100.51-10.404 152.516-31.199 45.059-17.328 86.626-45.071 121.293-79.726 38.123-38.123 65.866-79.702 83.182-124.761 17.34-45.059 27.743-93.574 27.743-145.568 0-38.135-3.456-76.246-17.328-114.381zM711.502 735.729h-320.915c-7.538 0-13.655-6.117-13.655-13.655v-286.573h27.322v272.906h293.593v-7.995l-218.491-34.222v-363.843l219.238-35.233 0.048-13.763c1.83-5.334 6.864-9.284 12.86-9.284 7.526 0 13.667 6.129 13.667 13.703v464.304c0 7.538-6.141 13.655-13.667 13.655v0zM529.52 449.806c-6.43 0-11.789 7.947-13.185 18.592l0.229 11.957c1.626 9.982 6.779 17.34 12.957 17.34 7.502 0 13.559-10.717 13.559-23.938 0.012-13.233-6.057-23.95-13.559-23.95v0zM404.242 257.758c0-7.55-6.117-13.667-13.655-13.667s-13.655 6.117-13.655 13.667v177.743h27.25l0.060-177.743z" />
</font>
</defs>
</svg>
